M48
;DRILL file {KiCad 4.0.7} date 08/31/18 00:14:36
;FORMAT={-:-/ absolute / metric / decimal}
FMAT,2
METRIC,TZ
T1C0.400
T2C0.700
T3C0.800
T4C0.900
T5C1.000
%
G90
G05
M71
T1
X126.238Y-128.016
X127.1Y-97.7
X128.7Y-106.3
X129.032Y-126.492
X129.9Y-95.4
X132.8Y-90.2
X132.8Y-92.2
X132.8Y-103.1
X133.1Y-109.7
X133.35Y-123.444
X133.35Y-125.476
X133.4Y-111.8
X133.8Y-88.5
X134.8Y-111.8
X134.874Y-125.222
X135.Y-87.7
X135.Y-109.
X135.89Y-129.794
X135.9Y-115.8
X136.2Y-86.9
X136.6Y-108.9
X148.6Y-110.4
T2
X121.Y-108.1
X121.5Y-128.6
X123.5Y-108.1
X124.Y-128.6
T3
X121.5Y-103.
X121.92Y-123.444
X123.5Y-103.
X123.92Y-123.444
X131.Y-100.
X131.Y-120.
X138.62Y-100.
X138.62Y-120.
T4
X148.6Y-79.5
X151.1Y-79.5
T5
X113.03Y-80.49
X113.03Y-83.03
X113.03Y-85.57
X113.03Y-88.11
X113.03Y-90.65
X113.03Y-93.19
X113.03Y-95.73
X113.03Y-98.27
X113.03Y-100.81
X113.03Y-103.35
X113.03Y-105.89
X113.03Y-108.43
X113.03Y-110.97
X113.03Y-113.51
X113.03Y-116.05
X113.03Y-118.59
X113.03Y-121.13
X113.03Y-123.67
X113.03Y-126.21
X113.03Y-128.75
X115.57Y-80.49
X115.57Y-83.03
X115.57Y-85.57
X115.57Y-88.11
X115.57Y-90.65
X115.57Y-93.19
X115.57Y-95.73
X115.57Y-98.27
X115.57Y-100.81
X115.57Y-103.35
X115.57Y-105.89
X115.57Y-108.43
X115.57Y-110.97
X115.57Y-113.51
X115.57Y-116.05
X115.57Y-118.59
X115.57Y-121.13
X115.57Y-123.67
X115.57Y-126.21
X115.57Y-128.75
X142.74Y-85.86
X142.74Y-88.4
X142.74Y-90.94
X142.74Y-93.48
X142.74Y-96.02
X142.74Y-98.56
X142.74Y-101.1
X142.74Y-103.64
X142.74Y-106.18
X142.74Y-108.72
X145.51Y-119.38
X145.51Y-121.92
X145.51Y-124.46
X145.51Y-127.
X147.32Y-93.726
X147.32Y-96.266
X147.32Y-98.806
X147.32Y-101.346
X147.32Y-103.886
X147.32Y-106.426
X147.32Y-108.966
X148.05Y-119.38
X148.05Y-121.92
X148.05Y-124.46
X148.05Y-127.
X149.86Y-93.726
X149.86Y-96.266
X149.86Y-98.806
X149.86Y-101.346
X149.86Y-103.886
X149.86Y-106.426
X149.86Y-108.966
X152.4Y-93.726
X152.4Y-96.266
X152.4Y-98.806
X152.4Y-101.346
X152.4Y-103.886
X152.4Y-106.426
X152.4Y-108.966
T0
M30
