G04 #@! TF.FileFunction,Copper,L1,Top,Signal*
%FSLAX46Y46*%
G04 Gerber Fmt 4.6, Leading zero omitted, Abs format (unit mm)*
G04 Created by KiCad (PCBNEW 4.0.7) date 08/31/18 00:13:05*
%MOMM*%
%LPD*%
G01*
G04 APERTURE LIST*
%ADD10C,0.150000*%
%ADD11C,1.400000*%
%ADD12R,1.600000X1.600000*%
%ADD13C,1.600000*%
%ADD14R,1.750000X0.450000*%
%ADD15R,1.700000X1.700000*%
%ADD16O,1.700000X1.700000*%
%ADD17R,1.850000X1.850000*%
%ADD18C,1.850000*%
%ADD19O,1.600000X1.600000*%
%ADD20C,0.600000*%
%ADD21C,0.250000*%
%ADD22C,0.500000*%
G04 APERTURE END LIST*
D10*
D11*
X121000000Y-108100000D03*
X123500000Y-108100000D03*
D12*
X121920000Y-123444000D03*
D13*
X123920000Y-123444000D03*
D14*
X138220000Y-129785000D03*
X138220000Y-129135000D03*
X138220000Y-128485000D03*
X138220000Y-127835000D03*
X138220000Y-127185000D03*
X138220000Y-126535000D03*
X138220000Y-125885000D03*
X138220000Y-125235000D03*
X138220000Y-124585000D03*
X138220000Y-123935000D03*
X138220000Y-123285000D03*
X138220000Y-122635000D03*
X131020000Y-122635000D03*
X131020000Y-123285000D03*
X131020000Y-123935000D03*
X131020000Y-124585000D03*
X131020000Y-125235000D03*
X131020000Y-125885000D03*
X131020000Y-126535000D03*
X131020000Y-127185000D03*
X131020000Y-127835000D03*
X131020000Y-128485000D03*
X131020000Y-129135000D03*
X131020000Y-129785000D03*
X138200000Y-109575000D03*
X138200000Y-108925000D03*
X138200000Y-108275000D03*
X138200000Y-107625000D03*
X138200000Y-106975000D03*
X138200000Y-106325000D03*
X138200000Y-105675000D03*
X138200000Y-105025000D03*
X138200000Y-104375000D03*
X138200000Y-103725000D03*
X138200000Y-103075000D03*
X138200000Y-102425000D03*
X131000000Y-102425000D03*
X131000000Y-103075000D03*
X131000000Y-103725000D03*
X131000000Y-104375000D03*
X131000000Y-105025000D03*
X131000000Y-105675000D03*
X131000000Y-106325000D03*
X131000000Y-106975000D03*
X131000000Y-107625000D03*
X131000000Y-108275000D03*
X131000000Y-108925000D03*
X131000000Y-109575000D03*
D15*
X115570000Y-80490000D03*
D16*
X113030000Y-80490000D03*
X115570000Y-83030000D03*
X113030000Y-83030000D03*
X115570000Y-85570000D03*
X113030000Y-85570000D03*
X115570000Y-88110000D03*
X113030000Y-88110000D03*
X115570000Y-90650000D03*
X113030000Y-90650000D03*
X115570000Y-93190000D03*
X113030000Y-93190000D03*
X115570000Y-95730000D03*
X113030000Y-95730000D03*
X115570000Y-98270000D03*
X113030000Y-98270000D03*
X115570000Y-100810000D03*
X113030000Y-100810000D03*
X115570000Y-103350000D03*
X113030000Y-103350000D03*
X115570000Y-105890000D03*
X113030000Y-105890000D03*
X115570000Y-108430000D03*
X113030000Y-108430000D03*
X115570000Y-110970000D03*
X113030000Y-110970000D03*
X115570000Y-113510000D03*
X113030000Y-113510000D03*
X115570000Y-116050000D03*
X113030000Y-116050000D03*
X115570000Y-118590000D03*
X113030000Y-118590000D03*
X115570000Y-121130000D03*
X113030000Y-121130000D03*
X115570000Y-123670000D03*
X113030000Y-123670000D03*
X115570000Y-126210000D03*
X113030000Y-126210000D03*
X115570000Y-128750000D03*
X113030000Y-128750000D03*
D12*
X121500000Y-103000000D03*
D13*
X123500000Y-103000000D03*
D11*
X121500000Y-128600000D03*
X124000000Y-128600000D03*
D15*
X142740000Y-101100000D03*
D16*
X142740000Y-103640000D03*
X142740000Y-106180000D03*
X142740000Y-108720000D03*
D15*
X142740000Y-85860000D03*
D16*
X142740000Y-88400000D03*
X142740000Y-90940000D03*
X142740000Y-93480000D03*
X142740000Y-96020000D03*
X142740000Y-98560000D03*
D15*
X152400000Y-93726000D03*
D16*
X149860000Y-93726000D03*
X147320000Y-93726000D03*
D15*
X152400000Y-108966000D03*
D16*
X149860000Y-108966000D03*
X147320000Y-108966000D03*
D15*
X152400000Y-106426000D03*
D16*
X149860000Y-106426000D03*
X147320000Y-106426000D03*
D15*
X152400000Y-96266000D03*
D16*
X149860000Y-96266000D03*
X147320000Y-96266000D03*
D15*
X152400000Y-103886000D03*
D16*
X149860000Y-103886000D03*
X147320000Y-103886000D03*
D15*
X152400000Y-101346000D03*
D16*
X149860000Y-101346000D03*
X147320000Y-101346000D03*
D15*
X152400000Y-98806000D03*
D16*
X149860000Y-98806000D03*
X147320000Y-98806000D03*
D15*
X145510000Y-119380000D03*
D16*
X145510000Y-121920000D03*
X145510000Y-124460000D03*
X145510000Y-127000000D03*
D15*
X148050000Y-119380000D03*
D16*
X148050000Y-121920000D03*
X148050000Y-124460000D03*
X148050000Y-127000000D03*
D17*
X151100000Y-79500000D03*
D18*
X148600000Y-79500000D03*
D13*
X131000000Y-120000000D03*
D19*
X138620000Y-120000000D03*
D13*
X131000000Y-100000000D03*
D19*
X138620000Y-100000000D03*
D20*
X133100000Y-109700000D03*
X148600000Y-110400000D03*
X135000000Y-109000000D03*
X136600000Y-108900000D03*
X133350000Y-125476000D03*
X134874000Y-125222000D03*
X132800000Y-103100000D03*
X132800000Y-92200000D03*
X132800000Y-90200000D03*
X134800000Y-111800000D03*
X133400000Y-111800000D03*
X135900000Y-115800000D03*
X135890000Y-129794000D03*
X133350000Y-123444000D03*
X126238000Y-128016000D03*
X129032000Y-126492000D03*
X127100000Y-97700000D03*
X129900000Y-95400000D03*
X136200000Y-86900000D03*
X133800000Y-88500000D03*
X135000000Y-87700000D03*
X128700000Y-106300000D03*
D21*
X133100000Y-109700000D02*
X134100000Y-108700000D01*
X131020000Y-127185000D02*
X133415000Y-127185000D01*
X133415000Y-127185000D02*
X134100000Y-126500000D01*
X134100000Y-126500000D02*
X134100000Y-108700000D01*
X133575000Y-106975000D02*
X131000000Y-106975000D01*
X134100000Y-108700000D02*
X134100000Y-107500000D01*
X134100000Y-107500000D02*
X133575000Y-106975000D01*
X121500000Y-103000000D02*
X121500000Y-104200000D01*
X121000000Y-104700000D02*
X121000000Y-108100000D01*
X121500000Y-104200000D02*
X121000000Y-104700000D01*
X152400000Y-108966000D02*
X152400000Y-109000000D01*
X152400000Y-109000000D02*
X151000000Y-110400000D01*
X151000000Y-110400000D02*
X148600000Y-110400000D01*
X138620000Y-100000000D02*
X138800000Y-100000000D01*
X138800000Y-100000000D02*
X139900000Y-101100000D01*
X139900000Y-101100000D02*
X142740000Y-101100000D01*
X123500000Y-103000000D02*
X123500000Y-108100000D01*
X131000000Y-105675000D02*
X133875000Y-105675000D01*
X135000000Y-106800000D02*
X135000000Y-109000000D01*
X133875000Y-105675000D02*
X135000000Y-106800000D01*
X136700000Y-108800000D02*
X136700000Y-107700000D01*
X136600000Y-108900000D02*
X136700000Y-108800000D01*
X138200000Y-104375000D02*
X137025000Y-104375000D01*
X137025000Y-104375000D02*
X136700000Y-104700000D01*
X138200000Y-107625000D02*
X137125000Y-107625000D01*
X137125000Y-107625000D02*
X136700000Y-107200000D01*
X138200000Y-103725000D02*
X136975000Y-103725000D01*
X136700000Y-107700000D02*
X137300000Y-108300000D01*
X136700000Y-104000000D02*
X136700000Y-104700000D01*
X136700000Y-104700000D02*
X136700000Y-107200000D01*
X136700000Y-107200000D02*
X136700000Y-107700000D01*
X136975000Y-103725000D02*
X136700000Y-104000000D01*
X113030000Y-116050000D02*
X113030000Y-115824000D01*
X136652000Y-124206000D02*
X136652000Y-122174000D01*
X136652000Y-122174000D02*
X137414000Y-121412000D01*
X131020000Y-125885000D02*
X132941000Y-125885000D01*
X132941000Y-125885000D02*
X133350000Y-125476000D01*
X134874000Y-125222000D02*
X136652000Y-125222000D01*
X136652000Y-124460000D02*
X136652000Y-125222000D01*
X136652000Y-125222000D02*
X136652000Y-128270000D01*
X138220000Y-123935000D02*
X136923000Y-123935000D01*
X136777000Y-124585000D02*
X138220000Y-124585000D01*
X136652000Y-124460000D02*
X136777000Y-124585000D01*
X136652000Y-124206000D02*
X136652000Y-124460000D01*
X136923000Y-123935000D02*
X136652000Y-124206000D01*
X138220000Y-127835000D02*
X136833000Y-127835000D01*
X136833000Y-127835000D02*
X136652000Y-128016000D01*
X136652000Y-128016000D02*
X136652000Y-128270000D01*
X136867000Y-128485000D02*
X138220000Y-128485000D01*
X136652000Y-128270000D02*
X136867000Y-128485000D01*
X132800000Y-90200000D02*
X132800000Y-92200000D01*
X131000000Y-109575000D02*
X131000000Y-110600000D01*
X135400000Y-112400000D02*
X135900000Y-112400000D01*
X134800000Y-111800000D02*
X135400000Y-112400000D01*
X132200000Y-111800000D02*
X133400000Y-111800000D01*
X131000000Y-110600000D02*
X132200000Y-111800000D01*
X121920000Y-123444000D02*
X121920000Y-122480000D01*
X128450000Y-122100000D02*
X129286000Y-122936000D01*
X122300000Y-122100000D02*
X128450000Y-122100000D01*
X121920000Y-122480000D02*
X122300000Y-122100000D01*
X135500000Y-103100000D02*
X132800000Y-103100000D01*
X132800000Y-103100000D02*
X131025000Y-103100000D01*
X135900000Y-103500000D02*
X135500000Y-103100000D01*
X135900000Y-110400000D02*
X135900000Y-103500000D01*
X135900000Y-115800000D02*
X135900000Y-112400000D01*
X135900000Y-112400000D02*
X135900000Y-110400000D01*
X131025000Y-103100000D02*
X131000000Y-103075000D01*
X131000000Y-103075000D02*
X129175000Y-103075000D01*
X129575000Y-102425000D02*
X131000000Y-102425000D01*
X129200000Y-102800000D02*
X129575000Y-102425000D01*
X129200000Y-103050000D02*
X129200000Y-102800000D01*
X129175000Y-103075000D02*
X129200000Y-103050000D01*
X121920000Y-123444000D02*
X121920000Y-125080000D01*
X121500000Y-125500000D02*
X121500000Y-128600000D01*
X121920000Y-125080000D02*
X121500000Y-125500000D01*
X132851000Y-129785000D02*
X131020000Y-129785000D01*
X135890000Y-129794000D02*
X132851000Y-129785000D01*
X133191000Y-123285000D02*
X131020000Y-123285000D01*
X133350000Y-123444000D02*
X133191000Y-123285000D01*
X129286000Y-123285000D02*
X129286000Y-122936000D01*
X129286000Y-123285000D02*
X131020000Y-123285000D01*
X129286000Y-122936000D02*
X129587000Y-122635000D01*
X129587000Y-122635000D02*
X131020000Y-122635000D01*
X114328000Y-119888000D02*
X113030000Y-118590000D01*
X116586000Y-119888000D02*
X114328000Y-119888000D01*
X117602000Y-120904000D02*
X116586000Y-119888000D01*
X117602000Y-123190000D02*
X117602000Y-120904000D01*
X118618000Y-124206000D02*
X117602000Y-123190000D01*
X118618000Y-126238000D02*
X118618000Y-124206000D01*
X119634000Y-127254000D02*
X118618000Y-126238000D01*
X119634000Y-130556000D02*
X119634000Y-127254000D01*
X119903996Y-130825996D02*
X119634000Y-130556000D01*
X125968004Y-130825996D02*
X119903996Y-130825996D01*
X126238000Y-130556000D02*
X125968004Y-130825996D01*
X126238000Y-128016000D02*
X126238000Y-130556000D01*
X129075000Y-126535000D02*
X131020000Y-126535000D01*
X129032000Y-126492000D02*
X129075000Y-126535000D01*
X142740000Y-103640000D02*
X142760000Y-103640000D01*
X142760000Y-103640000D02*
X144200000Y-102200000D01*
X144200000Y-87320000D02*
X142740000Y-85860000D01*
X144200000Y-102200000D02*
X144200000Y-87320000D01*
X131020000Y-123935000D02*
X127779000Y-123935000D01*
X117094000Y-122654000D02*
X115570000Y-121130000D01*
X117094000Y-123698000D02*
X117094000Y-122654000D01*
X118110000Y-124714000D02*
X117094000Y-123698000D01*
X118110000Y-126492000D02*
X118110000Y-124714000D01*
X119126000Y-127508000D02*
X118110000Y-126492000D01*
X119126000Y-131071998D02*
X119126000Y-127508000D01*
X119380000Y-131325998D02*
X119126000Y-131071998D01*
X126746000Y-131325998D02*
X119380000Y-131325998D01*
X127000000Y-131071998D02*
X126746000Y-131325998D01*
X127000000Y-124714000D02*
X127000000Y-131071998D01*
X127779000Y-123935000D02*
X127000000Y-124714000D01*
X127100000Y-97700000D02*
X128500000Y-96300000D01*
X128500000Y-96300000D02*
X142460000Y-96300000D01*
X142460000Y-96300000D02*
X142740000Y-96020000D01*
X139500000Y-95100000D02*
X139200000Y-95400000D01*
X139500000Y-95100000D02*
X141120000Y-93480000D01*
X142740000Y-93480000D02*
X141120000Y-93480000D01*
X139200000Y-95400000D02*
X129900000Y-95400000D01*
X136200000Y-86900000D02*
X118000000Y-86900000D01*
X118000000Y-86900000D02*
X117500000Y-86400000D01*
X117500000Y-86400000D02*
X117500000Y-84960000D01*
X117500000Y-84960000D02*
X115570000Y-83030000D01*
X116610000Y-88110000D02*
X115570000Y-88110000D01*
X117000000Y-88500000D02*
X116610000Y-88110000D01*
X133800000Y-88500000D02*
X117000000Y-88500000D01*
X116700000Y-86700000D02*
X115570000Y-85570000D01*
X116700000Y-87100000D02*
X116700000Y-86700000D01*
X117400000Y-87800000D02*
X116700000Y-87100000D01*
X134900000Y-87800000D02*
X117400000Y-87800000D01*
X135000000Y-87700000D02*
X134900000Y-87800000D01*
X115570000Y-116050000D02*
X117750000Y-116050000D01*
X129125000Y-108275000D02*
X131000000Y-108275000D01*
X128400000Y-109000000D02*
X129125000Y-108275000D01*
X128400000Y-117500000D02*
X128400000Y-109000000D01*
X127900000Y-118000000D02*
X128400000Y-117500000D01*
X118500000Y-118000000D02*
X127900000Y-118000000D01*
X118100000Y-117600000D02*
X118500000Y-118000000D01*
X118100000Y-116400000D02*
X118100000Y-117600000D01*
X117750000Y-116050000D02*
X118100000Y-116400000D01*
X115570000Y-118590000D02*
X128310000Y-118590000D01*
X129000000Y-109500000D02*
X129575000Y-108925000D01*
X129575000Y-108925000D02*
X131000000Y-108925000D01*
X129000000Y-117900000D02*
X129000000Y-109500000D01*
X128310000Y-118590000D02*
X129000000Y-117900000D01*
X147320000Y-106426000D02*
X145826000Y-106426000D01*
X116280000Y-93900000D02*
X115570000Y-93190000D01*
X138499998Y-93900000D02*
X116280000Y-93900000D01*
X138999998Y-93400000D02*
X138499998Y-93900000D01*
X138999998Y-84900002D02*
X138999998Y-93400000D01*
X140700002Y-83199998D02*
X138999998Y-84900002D01*
X144399998Y-83199998D02*
X140700002Y-83199998D01*
X145300002Y-84100002D02*
X144399998Y-83199998D01*
X145300002Y-105900002D02*
X145300002Y-84100002D01*
X145826000Y-106426000D02*
X145300002Y-105900002D01*
X131020000Y-129135000D02*
X129945000Y-129135000D01*
X113030000Y-133604000D02*
X113030000Y-128750000D01*
X113291998Y-133865998D02*
X113030000Y-133604000D01*
X129032000Y-133865998D02*
X113291998Y-133865998D01*
X129540000Y-133357998D02*
X129032000Y-133865998D01*
X129540000Y-129540000D02*
X129540000Y-133357998D01*
X129945000Y-129135000D02*
X129540000Y-129540000D01*
X131020000Y-128485000D02*
X129833000Y-128485000D01*
X114300000Y-127480000D02*
X113030000Y-126210000D01*
X114300000Y-133096000D02*
X114300000Y-127480000D01*
X114569996Y-133365996D02*
X114300000Y-133096000D01*
X128524000Y-133365996D02*
X114569996Y-133365996D01*
X129032000Y-132857996D02*
X128524000Y-133365996D01*
X129032000Y-129286000D02*
X129032000Y-132857996D01*
X129833000Y-128485000D02*
X129032000Y-129286000D01*
X147320000Y-108966000D02*
X145466000Y-108966000D01*
X114340000Y-94500000D02*
X113030000Y-93190000D01*
X138700000Y-94500000D02*
X114340000Y-94500000D01*
X139500000Y-93700000D02*
X138700000Y-94500000D01*
X139500000Y-85200000D02*
X139500000Y-93700000D01*
X141000000Y-83700000D02*
X139500000Y-85200000D01*
X144000000Y-83700000D02*
X141000000Y-83700000D01*
X144800000Y-84500000D02*
X144000000Y-83700000D01*
X144800000Y-108300000D02*
X144800000Y-84500000D01*
X145466000Y-108966000D02*
X144800000Y-108300000D01*
X131020000Y-124585000D02*
X128145000Y-124585000D01*
X117602000Y-125222000D02*
X116050000Y-123670000D01*
X117602000Y-126800890D02*
X117602000Y-125222000D01*
X118618000Y-127816890D02*
X117602000Y-126800890D01*
X118618000Y-131579998D02*
X118618000Y-127816890D01*
X118864002Y-131826000D02*
X118618000Y-131579998D01*
X127261998Y-131826000D02*
X118864002Y-131826000D01*
X127508000Y-131579998D02*
X127261998Y-131826000D01*
X127508000Y-125222000D02*
X127508000Y-131579998D01*
X128145000Y-124585000D02*
X127508000Y-125222000D01*
X116050000Y-123670000D02*
X115570000Y-123670000D01*
X116050000Y-123670000D02*
X115570000Y-123670000D01*
X115570000Y-123670000D02*
X116050000Y-123670000D01*
X131020000Y-125235000D02*
X128511000Y-125235000D01*
X114328000Y-124968000D02*
X113030000Y-123670000D01*
X116332000Y-124968000D02*
X114328000Y-124968000D01*
X117094000Y-125730000D02*
X116332000Y-124968000D01*
X117094000Y-127000000D02*
X117094000Y-125730000D01*
X118110000Y-128016000D02*
X117094000Y-127000000D01*
X118110000Y-131826000D02*
X118110000Y-128016000D01*
X118618000Y-132334000D02*
X118110000Y-131826000D01*
X127769998Y-132334000D02*
X118618000Y-132334000D01*
X128016000Y-132087998D02*
X127769998Y-132334000D01*
X128016000Y-125730000D02*
X128016000Y-132087998D01*
X128511000Y-125235000D02*
X128016000Y-125730000D01*
X113030000Y-98270000D02*
X113030000Y-98330000D01*
X113030000Y-98330000D02*
X114200000Y-99500000D01*
X114200000Y-99500000D02*
X117600000Y-99500000D01*
X117600000Y-99500000D02*
X118300000Y-100200000D01*
X118300000Y-100200000D02*
X118300000Y-113800000D01*
X118300000Y-113800000D02*
X119900000Y-115400000D01*
X119900000Y-115400000D02*
X119900000Y-115800000D01*
X119900000Y-115800000D02*
X120300000Y-116200000D01*
X120300000Y-116200000D02*
X126300000Y-116200000D01*
X126300000Y-116200000D02*
X126500000Y-116000000D01*
X126500000Y-116000000D02*
X126500000Y-107100000D01*
X126500000Y-107100000D02*
X128575000Y-105025000D01*
X128575000Y-105025000D02*
X131000000Y-105025000D01*
X115570000Y-95730000D02*
X115830000Y-95730000D01*
X115830000Y-95730000D02*
X119700000Y-99600000D01*
X119700000Y-99600000D02*
X119700000Y-113100000D01*
X119700000Y-113100000D02*
X121500000Y-114900000D01*
X121500000Y-114900000D02*
X124900000Y-114900000D01*
X124900000Y-114900000D02*
X125200000Y-114600000D01*
X125200000Y-114600000D02*
X125200000Y-106700000D01*
X125200000Y-106700000D02*
X128175000Y-103725000D01*
X128175000Y-103725000D02*
X131000000Y-103725000D01*
X131020000Y-127835000D02*
X129721000Y-127835000D01*
X117602000Y-128242000D02*
X115570000Y-126210000D01*
X117602000Y-132080000D02*
X117602000Y-128242000D01*
X118364000Y-132842000D02*
X117602000Y-132080000D01*
X128293994Y-132842000D02*
X118364000Y-132842000D01*
X128524000Y-132611994D02*
X128293994Y-132842000D01*
X128524000Y-129032000D02*
X128524000Y-132611994D01*
X129721000Y-127835000D02*
X128524000Y-129032000D01*
X128700000Y-106300000D02*
X128675000Y-106325000D01*
X113030000Y-100810000D02*
X113030000Y-100830000D01*
X113030000Y-100830000D02*
X114300000Y-102100000D01*
X114300000Y-102100000D02*
X116900000Y-102100000D01*
X116900000Y-102100000D02*
X117700002Y-102900002D01*
X117700002Y-102900002D02*
X117700002Y-114100002D01*
X117700002Y-114100002D02*
X119300000Y-115700000D01*
X119300000Y-115700000D02*
X119300000Y-116600000D01*
X119300000Y-116600000D02*
X119500000Y-116800000D01*
X119500000Y-116800000D02*
X126900000Y-116800000D01*
X126900000Y-116800000D02*
X127100000Y-116600000D01*
X127100000Y-116600000D02*
X127100000Y-107900000D01*
X127100000Y-107900000D02*
X128675000Y-106325000D01*
X128675000Y-106325000D02*
X131000000Y-106325000D01*
X113030000Y-105890000D02*
X113030000Y-105930000D01*
X113030000Y-105930000D02*
X114300000Y-107200000D01*
X114300000Y-107200000D02*
X116800000Y-107200000D01*
X116800000Y-107200000D02*
X117200000Y-107600000D01*
X117200000Y-107600000D02*
X117200000Y-114500000D01*
X117200000Y-114500000D02*
X118700000Y-116000000D01*
X118700000Y-116000000D02*
X118700000Y-117100000D01*
X118700000Y-117100000D02*
X119000000Y-117400000D01*
X119000000Y-117400000D02*
X127500000Y-117400000D01*
X127500000Y-117400000D02*
X127700000Y-117200000D01*
X127700000Y-117200000D02*
X127700000Y-108700000D01*
X127700000Y-108700000D02*
X128775000Y-107625000D01*
X128775000Y-107625000D02*
X131000000Y-107625000D01*
X115570000Y-98270000D02*
X117470000Y-98270000D01*
X128325000Y-104375000D02*
X131000000Y-104375000D01*
X125800000Y-106900000D02*
X128325000Y-104375000D01*
X125800000Y-115400000D02*
X125800000Y-106900000D01*
X125700000Y-115500000D02*
X125800000Y-115400000D01*
X120700000Y-115500000D02*
X125700000Y-115500000D01*
X120500000Y-115300000D02*
X120700000Y-115500000D01*
X120500000Y-114900000D02*
X120500000Y-115300000D01*
X119000000Y-113400000D02*
X120500000Y-114900000D01*
X119000000Y-99800000D02*
X119000000Y-113400000D01*
X117470000Y-98270000D02*
X119000000Y-99800000D01*
X147320000Y-101346000D02*
X147354000Y-101346000D01*
X147354000Y-101346000D02*
X148600000Y-100100000D01*
X148600000Y-100100000D02*
X148600000Y-93100000D01*
X148600000Y-93100000D02*
X146500000Y-91000000D01*
X146500000Y-91000000D02*
X146500000Y-83600000D01*
X146500000Y-83600000D02*
X144900000Y-82000000D01*
X144900000Y-82000000D02*
X140100000Y-82000000D01*
X140100000Y-82000000D02*
X137900000Y-84200000D01*
X137900000Y-84200000D02*
X137900000Y-89400000D01*
X137900000Y-89400000D02*
X114300000Y-89400000D01*
X114300000Y-89400000D02*
X113030000Y-88130000D01*
X113030000Y-88130000D02*
X113030000Y-88110000D01*
X147320000Y-103886000D02*
X146686000Y-103886000D01*
X146686000Y-103886000D02*
X145900000Y-103100000D01*
X145900000Y-103100000D02*
X145900000Y-83900000D01*
X145900000Y-83900000D02*
X144600000Y-82600000D01*
X144600000Y-82600000D02*
X140300000Y-82600000D01*
X140300000Y-82600000D02*
X138499996Y-84400004D01*
X138499996Y-84400004D02*
X138499996Y-93000004D01*
X138499996Y-93000004D02*
X138200000Y-93300000D01*
X138200000Y-93300000D02*
X117800000Y-93300000D01*
X117800000Y-93300000D02*
X117400000Y-92900000D01*
X117400000Y-92900000D02*
X117400000Y-92500000D01*
X117400000Y-92500000D02*
X116800000Y-91900000D01*
X116800000Y-91900000D02*
X114280000Y-91900000D01*
X114280000Y-91900000D02*
X113030000Y-90650000D01*
D22*
X143870000Y-119380000D02*
X145510000Y-119380000D01*
X140615000Y-122635000D02*
X143870000Y-119380000D01*
D21*
X138220000Y-123285000D02*
X139965000Y-123285000D01*
X139965000Y-123285000D02*
X140615000Y-122635000D01*
D22*
X138220000Y-122635000D02*
X140615000Y-122635000D01*
X144330000Y-121920000D02*
X145510000Y-121920000D01*
X140900000Y-125350000D02*
X144330000Y-121920000D01*
D21*
X138220000Y-125235000D02*
X141015000Y-125235000D01*
X140900000Y-125200000D02*
X140900000Y-125350000D01*
X140980000Y-125200000D02*
X140900000Y-125200000D01*
X141015000Y-125235000D02*
X140980000Y-125200000D01*
D22*
X138220000Y-125885000D02*
X140365000Y-125885000D01*
X140365000Y-125885000D02*
X140900000Y-125350000D01*
D21*
X138220000Y-127185000D02*
X141315000Y-127185000D01*
X141315000Y-127185000D02*
X141965000Y-126535000D01*
D22*
X138220000Y-126535000D02*
X141965000Y-126535000D01*
X141965000Y-126535000D02*
X144040000Y-124460000D01*
X144040000Y-124460000D02*
X145510000Y-124460000D01*
D21*
X138220000Y-129135000D02*
X141115000Y-129135000D01*
X141200000Y-129100000D02*
X141200000Y-129050000D01*
X141150000Y-129100000D02*
X141200000Y-129100000D01*
X141115000Y-129135000D02*
X141150000Y-129100000D01*
D22*
X138220000Y-129785000D02*
X140465000Y-129785000D01*
X140465000Y-129785000D02*
X141200000Y-129050000D01*
X141200000Y-129050000D02*
X143250000Y-127000000D01*
X143250000Y-127000000D02*
X145510000Y-127000000D01*
D21*
X138200000Y-108925000D02*
X138200000Y-109575000D01*
D22*
X138200000Y-109575000D02*
X138200000Y-116000000D01*
X148050000Y-118450000D02*
X148050000Y-119380000D01*
X147000000Y-117400000D02*
X148050000Y-118450000D01*
X139600000Y-117400000D02*
X147000000Y-117400000D01*
X138200000Y-116000000D02*
X139600000Y-117400000D01*
D21*
X138200000Y-106975000D02*
X139475000Y-106975000D01*
X139400000Y-107000000D02*
X139400000Y-106900000D01*
X139450000Y-107000000D02*
X139400000Y-107000000D01*
X139475000Y-106975000D02*
X139450000Y-107000000D01*
D22*
X138200000Y-106325000D02*
X138825000Y-106325000D01*
X138825000Y-106325000D02*
X139400000Y-106900000D01*
X139400000Y-106900000D02*
X139600000Y-107100000D01*
X139600000Y-107100000D02*
X139600000Y-116200000D01*
X139600000Y-116200000D02*
X139900000Y-116500000D01*
X139900000Y-116500000D02*
X148300000Y-116500000D01*
X148300000Y-116500000D02*
X149500000Y-117700000D01*
X149500000Y-117700000D02*
X149500000Y-120470000D01*
X149500000Y-120470000D02*
X148050000Y-121920000D01*
D21*
X138200000Y-105025000D02*
X139325000Y-105025000D01*
X139800000Y-105500000D02*
X139800000Y-106100000D01*
X139325000Y-105025000D02*
X139800000Y-105500000D01*
D22*
X138200000Y-105675000D02*
X139375000Y-105675000D01*
X150300000Y-122210000D02*
X148050000Y-124460000D01*
X150300000Y-117300000D02*
X150300000Y-122210000D01*
X148700000Y-115700000D02*
X150300000Y-117300000D01*
X140600000Y-115700000D02*
X148700000Y-115700000D01*
X140400000Y-115500000D02*
X140600000Y-115700000D01*
X140400000Y-106700000D02*
X140400000Y-115500000D01*
X139375000Y-105675000D02*
X139800000Y-106100000D01*
X139800000Y-106100000D02*
X140400000Y-106700000D01*
D21*
X138200000Y-103075000D02*
X139675000Y-103075000D01*
X139675000Y-103075000D02*
X139600000Y-103000000D01*
D22*
X138200000Y-102425000D02*
X139025000Y-102425000D01*
X139025000Y-102425000D02*
X139600000Y-103000000D01*
X139600000Y-103000000D02*
X141200000Y-104600000D01*
X141200000Y-104600000D02*
X141200000Y-114500000D01*
X141200000Y-114500000D02*
X141500000Y-114800000D01*
X141500000Y-114800000D02*
X149100000Y-114800000D01*
X149100000Y-114800000D02*
X151300000Y-117000000D01*
X151300000Y-117000000D02*
X151300000Y-122600000D01*
X151300000Y-122600000D02*
X149600000Y-124300000D01*
X149600000Y-124300000D02*
X149600000Y-125450000D01*
X149600000Y-125450000D02*
X148050000Y-127000000D01*
M02*
