G04 #@! TF.FileFunction,Legend,Top*
%FSLAX46Y46*%
G04 Gerber Fmt 4.6, Leading zero omitted, Abs format (unit mm)*
G04 Created by KiCad (PCBNEW 4.0.7) date 08/31/18 00:13:05*
%MOMM*%
%LPD*%
G01*
G04 APERTURE LIST*
%ADD10C,0.150000*%
%ADD11C,0.300000*%
%ADD12C,0.120000*%
G04 APERTURE END LIST*
D10*
X150128571Y-127404761D02*
X150176190Y-127261904D01*
X150223810Y-127214285D01*
X150319048Y-127166666D01*
X150461905Y-127166666D01*
X150557143Y-127214285D01*
X150604762Y-127261904D01*
X150652381Y-127357142D01*
X150652381Y-127738095D01*
X149652381Y-127738095D01*
X149652381Y-127404761D01*
X149700000Y-127309523D01*
X149747619Y-127261904D01*
X149842857Y-127214285D01*
X149938095Y-127214285D01*
X150033333Y-127261904D01*
X150080952Y-127309523D01*
X150128571Y-127404761D01*
X150128571Y-127738095D01*
X150652381Y-126214285D02*
X150652381Y-126785714D01*
X150652381Y-126500000D02*
X149652381Y-126500000D01*
X149795238Y-126595238D01*
X149890476Y-126690476D01*
X149938095Y-126785714D01*
X150128571Y-124804761D02*
X150176190Y-124661904D01*
X150223810Y-124614285D01*
X150319048Y-124566666D01*
X150461905Y-124566666D01*
X150557143Y-124614285D01*
X150604762Y-124661904D01*
X150652381Y-124757142D01*
X150652381Y-125138095D01*
X149652381Y-125138095D01*
X149652381Y-124804761D01*
X149700000Y-124709523D01*
X149747619Y-124661904D01*
X149842857Y-124614285D01*
X149938095Y-124614285D01*
X150033333Y-124661904D01*
X150080952Y-124709523D01*
X150128571Y-124804761D01*
X150128571Y-125138095D01*
X149747619Y-124185714D02*
X149700000Y-124138095D01*
X149652381Y-124042857D01*
X149652381Y-123804761D01*
X149700000Y-123709523D01*
X149747619Y-123661904D01*
X149842857Y-123614285D01*
X149938095Y-123614285D01*
X150080952Y-123661904D01*
X150652381Y-124233333D01*
X150652381Y-123614285D01*
X150366667Y-122614286D02*
X150366667Y-122138095D01*
X150652381Y-122709524D02*
X149652381Y-122376191D01*
X150652381Y-122042857D01*
X149747619Y-121757143D02*
X149700000Y-121709524D01*
X149652381Y-121614286D01*
X149652381Y-121376190D01*
X149700000Y-121280952D01*
X149747619Y-121233333D01*
X149842857Y-121185714D01*
X149938095Y-121185714D01*
X150080952Y-121233333D01*
X150652381Y-121804762D01*
X150652381Y-121185714D01*
X150366667Y-120014286D02*
X150366667Y-119538095D01*
X150652381Y-120109524D02*
X149652381Y-119776191D01*
X150652381Y-119442857D01*
X150652381Y-118585714D02*
X150652381Y-119157143D01*
X150652381Y-118871429D02*
X149652381Y-118871429D01*
X149795238Y-118966667D01*
X149890476Y-119061905D01*
X149938095Y-119157143D01*
X143428571Y-119704761D02*
X143476190Y-119561904D01*
X143523810Y-119514285D01*
X143619048Y-119466666D01*
X143761905Y-119466666D01*
X143857143Y-119514285D01*
X143904762Y-119561904D01*
X143952381Y-119657142D01*
X143952381Y-120038095D01*
X142952381Y-120038095D01*
X142952381Y-119704761D01*
X143000000Y-119609523D01*
X143047619Y-119561904D01*
X143142857Y-119514285D01*
X143238095Y-119514285D01*
X143333333Y-119561904D01*
X143380952Y-119609523D01*
X143428571Y-119704761D01*
X143428571Y-120038095D01*
X143952381Y-118514285D02*
X143952381Y-119085714D01*
X143952381Y-118800000D02*
X142952381Y-118800000D01*
X143095238Y-118895238D01*
X143190476Y-118990476D01*
X143238095Y-119085714D01*
X143428571Y-122304761D02*
X143476190Y-122161904D01*
X143523810Y-122114285D01*
X143619048Y-122066666D01*
X143761905Y-122066666D01*
X143857143Y-122114285D01*
X143904762Y-122161904D01*
X143952381Y-122257142D01*
X143952381Y-122638095D01*
X142952381Y-122638095D01*
X142952381Y-122304761D01*
X143000000Y-122209523D01*
X143047619Y-122161904D01*
X143142857Y-122114285D01*
X143238095Y-122114285D01*
X143333333Y-122161904D01*
X143380952Y-122209523D01*
X143428571Y-122304761D01*
X143428571Y-122638095D01*
X143047619Y-121685714D02*
X143000000Y-121638095D01*
X142952381Y-121542857D01*
X142952381Y-121304761D01*
X143000000Y-121209523D01*
X143047619Y-121161904D01*
X143142857Y-121114285D01*
X143238095Y-121114285D01*
X143380952Y-121161904D01*
X143952381Y-121733333D01*
X143952381Y-121114285D01*
X143666667Y-125014286D02*
X143666667Y-124538095D01*
X143952381Y-125109524D02*
X142952381Y-124776191D01*
X143952381Y-124442857D01*
X143047619Y-124157143D02*
X143000000Y-124109524D01*
X142952381Y-124014286D01*
X142952381Y-123776190D01*
X143000000Y-123680952D01*
X143047619Y-123633333D01*
X143142857Y-123585714D01*
X143238095Y-123585714D01*
X143380952Y-123633333D01*
X143952381Y-124204762D01*
X143952381Y-123585714D01*
D11*
X147278571Y-131142857D02*
X148492857Y-131142857D01*
X148635714Y-131071429D01*
X148707143Y-131000000D01*
X148778571Y-130857143D01*
X148778571Y-130571429D01*
X148707143Y-130428571D01*
X148635714Y-130357143D01*
X148492857Y-130285714D01*
X147278571Y-130285714D01*
X147421429Y-129642857D02*
X147350000Y-129571428D01*
X147278571Y-129428571D01*
X147278571Y-129071428D01*
X147350000Y-128928571D01*
X147421429Y-128857142D01*
X147564286Y-128785714D01*
X147707143Y-128785714D01*
X147921429Y-128857142D01*
X148778571Y-129714285D01*
X148778571Y-128785714D01*
D10*
X143566667Y-127714286D02*
X143566667Y-127238095D01*
X143852381Y-127809524D02*
X142852381Y-127476191D01*
X143852381Y-127142857D01*
X143852381Y-126285714D02*
X143852381Y-126857143D01*
X143852381Y-126571429D02*
X142852381Y-126571429D01*
X142995238Y-126666667D01*
X143090476Y-126761905D01*
X143138095Y-126857143D01*
D11*
X144678571Y-131142857D02*
X145892857Y-131142857D01*
X146035714Y-131071429D01*
X146107143Y-131000000D01*
X146178571Y-130857143D01*
X146178571Y-130571429D01*
X146107143Y-130428571D01*
X146035714Y-130357143D01*
X145892857Y-130285714D01*
X144678571Y-130285714D01*
X146178571Y-128785714D02*
X146178571Y-129642857D01*
X146178571Y-129214285D02*
X144678571Y-129214285D01*
X144892857Y-129357142D01*
X145035714Y-129500000D01*
X145107143Y-129642857D01*
D10*
X144747619Y-93985714D02*
X144700000Y-93938095D01*
X144652381Y-93842857D01*
X144652381Y-93604761D01*
X144700000Y-93509523D01*
X144747619Y-93461904D01*
X144842857Y-93414285D01*
X144938095Y-93414285D01*
X145080952Y-93461904D01*
X145652381Y-94033333D01*
X145652381Y-93414285D01*
X144652381Y-96733333D02*
X144652381Y-96114285D01*
X145033333Y-96447619D01*
X145033333Y-96304761D01*
X145080952Y-96209523D01*
X145128571Y-96161904D01*
X145223810Y-96114285D01*
X145461905Y-96114285D01*
X145557143Y-96161904D01*
X145604762Y-96209523D01*
X145652381Y-96304761D01*
X145652381Y-96590476D01*
X145604762Y-96685714D01*
X145557143Y-96733333D01*
X144985714Y-98709523D02*
X145652381Y-98709523D01*
X144604762Y-98947619D02*
X145319048Y-99185714D01*
X145319048Y-98566666D01*
X145652381Y-101590476D02*
X145652381Y-102161905D01*
X145652381Y-101876191D02*
X144652381Y-101876191D01*
X144795238Y-101971429D01*
X144890476Y-102066667D01*
X144938095Y-102161905D01*
X144985714Y-100733333D02*
X145652381Y-100733333D01*
X144604762Y-100971429D02*
X145319048Y-101209524D01*
X145319048Y-100590476D01*
X145652381Y-104090476D02*
X145652381Y-104661905D01*
X145652381Y-104376191D02*
X144652381Y-104376191D01*
X144795238Y-104471429D01*
X144890476Y-104566667D01*
X144938095Y-104661905D01*
X144652381Y-103185714D02*
X144652381Y-103661905D01*
X145128571Y-103709524D01*
X145080952Y-103661905D01*
X145033333Y-103566667D01*
X145033333Y-103328571D01*
X145080952Y-103233333D01*
X145128571Y-103185714D01*
X145223810Y-103138095D01*
X145461905Y-103138095D01*
X145557143Y-103185714D01*
X145604762Y-103233333D01*
X145652381Y-103328571D01*
X145652381Y-103566667D01*
X145604762Y-103661905D01*
X145557143Y-103709524D01*
X145652381Y-106690476D02*
X145652381Y-107261905D01*
X145652381Y-106976191D02*
X144652381Y-106976191D01*
X144795238Y-107071429D01*
X144890476Y-107166667D01*
X144938095Y-107261905D01*
X144652381Y-106357143D02*
X144652381Y-105690476D01*
X145652381Y-106119048D01*
X145652381Y-109090476D02*
X145652381Y-109661905D01*
X145652381Y-109376191D02*
X144652381Y-109376191D01*
X144795238Y-109471429D01*
X144890476Y-109566667D01*
X144938095Y-109661905D01*
X145080952Y-108519048D02*
X145033333Y-108614286D01*
X144985714Y-108661905D01*
X144890476Y-108709524D01*
X144842857Y-108709524D01*
X144747619Y-108661905D01*
X144700000Y-108614286D01*
X144652381Y-108519048D01*
X144652381Y-108328571D01*
X144700000Y-108233333D01*
X144747619Y-108185714D01*
X144842857Y-108138095D01*
X144890476Y-108138095D01*
X144985714Y-108185714D01*
X145033333Y-108233333D01*
X145080952Y-108328571D01*
X145080952Y-108519048D01*
X145128571Y-108614286D01*
X145176190Y-108661905D01*
X145271429Y-108709524D01*
X145461905Y-108709524D01*
X145557143Y-108661905D01*
X145604762Y-108614286D01*
X145652381Y-108519048D01*
X145652381Y-108328571D01*
X145604762Y-108233333D01*
X145557143Y-108185714D01*
X145461905Y-108138095D01*
X145271429Y-108138095D01*
X145176190Y-108185714D01*
X145128571Y-108233333D01*
X145080952Y-108328571D01*
D11*
X144892857Y-114200000D02*
X144964286Y-113985714D01*
X145035714Y-113914286D01*
X145178571Y-113842857D01*
X145392857Y-113842857D01*
X145535714Y-113914286D01*
X145607143Y-113985714D01*
X145678571Y-114128572D01*
X145678571Y-114700000D01*
X144178571Y-114700000D01*
X144178571Y-114200000D01*
X144250000Y-114057143D01*
X144321429Y-113985714D01*
X144464286Y-113914286D01*
X144607143Y-113914286D01*
X144750000Y-113985714D01*
X144821429Y-114057143D01*
X144892857Y-114200000D01*
X144892857Y-114700000D01*
X145535714Y-112342857D02*
X145607143Y-112414286D01*
X145678571Y-112628572D01*
X145678571Y-112771429D01*
X145607143Y-112985714D01*
X145464286Y-113128572D01*
X145321429Y-113200000D01*
X145035714Y-113271429D01*
X144821429Y-113271429D01*
X144535714Y-113200000D01*
X144392857Y-113128572D01*
X144250000Y-112985714D01*
X144178571Y-112771429D01*
X144178571Y-112628572D01*
X144250000Y-112414286D01*
X144321429Y-112342857D01*
X145678571Y-111700000D02*
X144178571Y-111700000D01*
X145250000Y-111200000D01*
X144178571Y-110700000D01*
X145678571Y-110700000D01*
D10*
X141204762Y-110590476D02*
X141252381Y-110447619D01*
X141252381Y-110209523D01*
X141204762Y-110114285D01*
X141157143Y-110066666D01*
X141061905Y-110019047D01*
X140966667Y-110019047D01*
X140871429Y-110066666D01*
X140823810Y-110114285D01*
X140776190Y-110209523D01*
X140728571Y-110400000D01*
X140680952Y-110495238D01*
X140633333Y-110542857D01*
X140538095Y-110590476D01*
X140442857Y-110590476D01*
X140347619Y-110542857D01*
X140300000Y-110495238D01*
X140252381Y-110400000D01*
X140252381Y-110161904D01*
X140300000Y-110019047D01*
X141157143Y-109019047D02*
X141204762Y-109066666D01*
X141252381Y-109209523D01*
X141252381Y-109304761D01*
X141204762Y-109447619D01*
X141109524Y-109542857D01*
X141014286Y-109590476D01*
X140823810Y-109638095D01*
X140680952Y-109638095D01*
X140490476Y-109590476D01*
X140395238Y-109542857D01*
X140300000Y-109447619D01*
X140252381Y-109304761D01*
X140252381Y-109209523D01*
X140300000Y-109066666D01*
X140347619Y-109019047D01*
X141252381Y-108114285D02*
X141252381Y-108590476D01*
X140252381Y-108590476D01*
X141304762Y-107414286D02*
X141352381Y-107271429D01*
X141352381Y-107033333D01*
X141304762Y-106938095D01*
X141257143Y-106890476D01*
X141161905Y-106842857D01*
X141066667Y-106842857D01*
X140971429Y-106890476D01*
X140923810Y-106938095D01*
X140876190Y-107033333D01*
X140828571Y-107223810D01*
X140780952Y-107319048D01*
X140733333Y-107366667D01*
X140638095Y-107414286D01*
X140542857Y-107414286D01*
X140447619Y-107366667D01*
X140400000Y-107319048D01*
X140352381Y-107223810D01*
X140352381Y-106985714D01*
X140400000Y-106842857D01*
X141352381Y-106414286D02*
X140352381Y-106414286D01*
X140352381Y-106176191D01*
X140400000Y-106033333D01*
X140495238Y-105938095D01*
X140590476Y-105890476D01*
X140780952Y-105842857D01*
X140923810Y-105842857D01*
X141114286Y-105890476D01*
X141209524Y-105938095D01*
X141304762Y-106033333D01*
X141352381Y-106176191D01*
X141352381Y-106414286D01*
X141066667Y-105461905D02*
X141066667Y-104985714D01*
X141352381Y-105557143D02*
X140352381Y-105223810D01*
X141352381Y-104890476D01*
X140200000Y-101861904D02*
X140152381Y-101957142D01*
X140152381Y-102099999D01*
X140200000Y-102242857D01*
X140295238Y-102338095D01*
X140390476Y-102385714D01*
X140580952Y-102433333D01*
X140723810Y-102433333D01*
X140914286Y-102385714D01*
X141009524Y-102338095D01*
X141104762Y-102242857D01*
X141152381Y-102099999D01*
X141152381Y-102004761D01*
X141104762Y-101861904D01*
X141057143Y-101814285D01*
X140723810Y-101814285D01*
X140723810Y-102004761D01*
X141152381Y-101385714D02*
X140152381Y-101385714D01*
X141152381Y-100814285D01*
X140152381Y-100814285D01*
X141152381Y-100338095D02*
X140152381Y-100338095D01*
X140152381Y-100100000D01*
X140200000Y-99957142D01*
X140295238Y-99861904D01*
X140390476Y-99814285D01*
X140580952Y-99766666D01*
X140723810Y-99766666D01*
X140914286Y-99814285D01*
X141009524Y-99861904D01*
X141104762Y-99957142D01*
X141152381Y-100100000D01*
X141152381Y-100338095D01*
X140252381Y-103790476D02*
X140252381Y-104266667D01*
X140728571Y-104314286D01*
X140680952Y-104266667D01*
X140633333Y-104171429D01*
X140633333Y-103933333D01*
X140680952Y-103838095D01*
X140728571Y-103790476D01*
X140823810Y-103742857D01*
X141061905Y-103742857D01*
X141157143Y-103790476D01*
X141204762Y-103838095D01*
X141252381Y-103933333D01*
X141252381Y-104171429D01*
X141204762Y-104266667D01*
X141157143Y-104314286D01*
X140252381Y-103457143D02*
X141252381Y-103123810D01*
X140252381Y-102790476D01*
X139904762Y-99061905D02*
X139952381Y-98919048D01*
X139952381Y-98680952D01*
X139904762Y-98585714D01*
X139857143Y-98538095D01*
X139761905Y-98490476D01*
X139666667Y-98490476D01*
X139571429Y-98538095D01*
X139523810Y-98585714D01*
X139476190Y-98680952D01*
X139428571Y-98871429D01*
X139380952Y-98966667D01*
X139333333Y-99014286D01*
X139238095Y-99061905D01*
X139142857Y-99061905D01*
X139047619Y-99014286D01*
X139000000Y-98966667D01*
X138952381Y-98871429D01*
X138952381Y-98633333D01*
X139000000Y-98490476D01*
X139904762Y-98109524D02*
X139952381Y-97966667D01*
X139952381Y-97728571D01*
X139904762Y-97633333D01*
X139857143Y-97585714D01*
X139761905Y-97538095D01*
X139666667Y-97538095D01*
X139571429Y-97585714D01*
X139523810Y-97633333D01*
X139476190Y-97728571D01*
X139428571Y-97919048D01*
X139380952Y-98014286D01*
X139333333Y-98061905D01*
X139238095Y-98109524D01*
X139142857Y-98109524D01*
X139047619Y-98061905D01*
X139000000Y-98014286D01*
X138952381Y-97919048D01*
X138952381Y-97680952D01*
X139000000Y-97538095D01*
X141252381Y-97571428D02*
X140252381Y-97571428D01*
X140966667Y-97238094D01*
X140252381Y-96904761D01*
X141252381Y-96904761D01*
X140252381Y-96238095D02*
X140252381Y-96047618D01*
X140300000Y-95952380D01*
X140395238Y-95857142D01*
X140585714Y-95809523D01*
X140919048Y-95809523D01*
X141109524Y-95857142D01*
X141204762Y-95952380D01*
X141252381Y-96047618D01*
X141252381Y-96238095D01*
X141204762Y-96333333D01*
X141109524Y-96428571D01*
X140919048Y-96476190D01*
X140585714Y-96476190D01*
X140395238Y-96428571D01*
X140300000Y-96333333D01*
X140252381Y-96238095D01*
X141204762Y-95428571D02*
X141252381Y-95285714D01*
X141252381Y-95047618D01*
X141204762Y-94952380D01*
X141157143Y-94904761D01*
X141061905Y-94857142D01*
X140966667Y-94857142D01*
X140871429Y-94904761D01*
X140823810Y-94952380D01*
X140776190Y-95047618D01*
X140728571Y-95238095D01*
X140680952Y-95333333D01*
X140633333Y-95380952D01*
X140538095Y-95428571D01*
X140442857Y-95428571D01*
X140347619Y-95380952D01*
X140300000Y-95333333D01*
X140252381Y-95238095D01*
X140252381Y-94999999D01*
X140300000Y-94857142D01*
X141252381Y-94428571D02*
X140252381Y-94428571D01*
X139952381Y-94971428D02*
X138952381Y-94971428D01*
X139666667Y-94638094D01*
X138952381Y-94304761D01*
X139952381Y-94304761D01*
X139952381Y-93828571D02*
X138952381Y-93828571D01*
X139904762Y-93400000D02*
X139952381Y-93257143D01*
X139952381Y-93019047D01*
X139904762Y-92923809D01*
X139857143Y-92876190D01*
X139761905Y-92828571D01*
X139666667Y-92828571D01*
X139571429Y-92876190D01*
X139523810Y-92923809D01*
X139476190Y-93019047D01*
X139428571Y-93209524D01*
X139380952Y-93304762D01*
X139333333Y-93352381D01*
X139238095Y-93400000D01*
X139142857Y-93400000D01*
X139047619Y-93352381D01*
X139000000Y-93304762D01*
X138952381Y-93209524D01*
X138952381Y-92971428D01*
X139000000Y-92828571D01*
X138952381Y-92209524D02*
X138952381Y-92019047D01*
X139000000Y-91923809D01*
X139095238Y-91828571D01*
X139285714Y-91780952D01*
X139619048Y-91780952D01*
X139809524Y-91828571D01*
X139904762Y-91923809D01*
X139952381Y-92019047D01*
X139952381Y-92209524D01*
X139904762Y-92304762D01*
X139809524Y-92400000D01*
X139619048Y-92447619D01*
X139285714Y-92447619D01*
X139095238Y-92400000D01*
X139000000Y-92304762D01*
X138952381Y-92209524D01*
X141157143Y-91495238D02*
X141204762Y-91542857D01*
X141252381Y-91685714D01*
X141252381Y-91780952D01*
X141204762Y-91923810D01*
X141109524Y-92019048D01*
X141014286Y-92066667D01*
X140823810Y-92114286D01*
X140680952Y-92114286D01*
X140490476Y-92066667D01*
X140395238Y-92019048D01*
X140300000Y-91923810D01*
X140252381Y-91780952D01*
X140252381Y-91685714D01*
X140300000Y-91542857D01*
X140347619Y-91495238D01*
X141252381Y-90590476D02*
X141252381Y-91066667D01*
X140252381Y-91066667D01*
X141252381Y-90257143D02*
X140252381Y-90257143D01*
X141252381Y-89685714D02*
X140680952Y-90114286D01*
X140252381Y-89685714D02*
X140823810Y-90257143D01*
X139000000Y-89061904D02*
X138952381Y-89157142D01*
X138952381Y-89299999D01*
X139000000Y-89442857D01*
X139095238Y-89538095D01*
X139190476Y-89585714D01*
X139380952Y-89633333D01*
X139523810Y-89633333D01*
X139714286Y-89585714D01*
X139809524Y-89538095D01*
X139904762Y-89442857D01*
X139952381Y-89299999D01*
X139952381Y-89204761D01*
X139904762Y-89061904D01*
X139857143Y-89014285D01*
X139523810Y-89014285D01*
X139523810Y-89204761D01*
X139952381Y-88585714D02*
X138952381Y-88585714D01*
X139952381Y-88014285D01*
X138952381Y-88014285D01*
X139952381Y-87538095D02*
X138952381Y-87538095D01*
X138952381Y-87300000D01*
X139000000Y-87157142D01*
X139095238Y-87061904D01*
X139190476Y-87014285D01*
X139380952Y-86966666D01*
X139523810Y-86966666D01*
X139714286Y-87014285D01*
X139809524Y-87061904D01*
X139904762Y-87157142D01*
X139952381Y-87300000D01*
X139952381Y-87538095D01*
X140152381Y-85890476D02*
X140152381Y-86366667D01*
X140628571Y-86414286D01*
X140580952Y-86366667D01*
X140533333Y-86271429D01*
X140533333Y-86033333D01*
X140580952Y-85938095D01*
X140628571Y-85890476D01*
X140723810Y-85842857D01*
X140961905Y-85842857D01*
X141057143Y-85890476D01*
X141104762Y-85938095D01*
X141152381Y-86033333D01*
X141152381Y-86271429D01*
X141104762Y-86366667D01*
X141057143Y-86414286D01*
X140152381Y-85557143D02*
X141152381Y-85223810D01*
X140152381Y-84890476D01*
D11*
X149400000Y-81478571D02*
X149400000Y-82550000D01*
X149328572Y-82764286D01*
X149185715Y-82907143D01*
X148971429Y-82978571D01*
X148828572Y-82978571D01*
X150900000Y-82978571D02*
X150042857Y-82978571D01*
X150471429Y-82978571D02*
X150471429Y-81478571D01*
X150328572Y-81692857D01*
X150185714Y-81835714D01*
X150042857Y-81907143D01*
X151750000Y-113642857D02*
X151678571Y-113785714D01*
X151678571Y-114000000D01*
X151750000Y-114214285D01*
X151892857Y-114357143D01*
X152035714Y-114428571D01*
X152321429Y-114500000D01*
X152535714Y-114500000D01*
X152821429Y-114428571D01*
X152964286Y-114357143D01*
X153107143Y-114214285D01*
X153178571Y-114000000D01*
X153178571Y-113857143D01*
X153107143Y-113642857D01*
X153035714Y-113571428D01*
X152535714Y-113571428D01*
X152535714Y-113857143D01*
X153178571Y-112928571D02*
X151678571Y-112928571D01*
X153178571Y-112071428D01*
X151678571Y-112071428D01*
X153178571Y-111357142D02*
X151678571Y-111357142D01*
X151678571Y-110999999D01*
X151750000Y-110785714D01*
X151892857Y-110642856D01*
X152035714Y-110571428D01*
X152321429Y-110499999D01*
X152535714Y-110499999D01*
X152821429Y-110571428D01*
X152964286Y-110642856D01*
X153107143Y-110785714D01*
X153178571Y-110999999D01*
X153178571Y-111357142D01*
X149178571Y-112085713D02*
X149178571Y-112799999D01*
X149892857Y-112871428D01*
X149821429Y-112799999D01*
X149750000Y-112657142D01*
X149750000Y-112299999D01*
X149821429Y-112157142D01*
X149892857Y-112085713D01*
X150035714Y-112014285D01*
X150392857Y-112014285D01*
X150535714Y-112085713D01*
X150607143Y-112157142D01*
X150678571Y-112299999D01*
X150678571Y-112657142D01*
X150607143Y-112799999D01*
X150535714Y-112871428D01*
X149178571Y-111585714D02*
X150678571Y-111085714D01*
X149178571Y-110585714D01*
X147978571Y-114807143D02*
X146478571Y-114807143D01*
X146478571Y-114235715D01*
X146550000Y-114092857D01*
X146621429Y-114021429D01*
X146764286Y-113950000D01*
X146978571Y-113950000D01*
X147121429Y-114021429D01*
X147192857Y-114092857D01*
X147264286Y-114235715D01*
X147264286Y-114807143D01*
X146478571Y-113450000D02*
X147978571Y-113092857D01*
X146907143Y-112807143D01*
X147978571Y-112521429D01*
X146478571Y-112164286D01*
X147978571Y-111592857D02*
X146478571Y-111592857D01*
X147550000Y-111092857D01*
X146478571Y-110592857D01*
X147978571Y-110592857D01*
X133457143Y-105278571D02*
X133457143Y-106492857D01*
X133528571Y-106635714D01*
X133600000Y-106707143D01*
X133742857Y-106778571D01*
X134028571Y-106778571D01*
X134171429Y-106707143D01*
X134242857Y-106635714D01*
X134314286Y-106492857D01*
X134314286Y-105278571D01*
X134957143Y-105421429D02*
X135028572Y-105350000D01*
X135171429Y-105278571D01*
X135528572Y-105278571D01*
X135671429Y-105350000D01*
X135742858Y-105421429D01*
X135814286Y-105564286D01*
X135814286Y-105707143D01*
X135742858Y-105921429D01*
X134885715Y-106778571D01*
X135814286Y-106778571D01*
X133557143Y-125478571D02*
X133557143Y-126692857D01*
X133628571Y-126835714D01*
X133700000Y-126907143D01*
X133842857Y-126978571D01*
X134128571Y-126978571D01*
X134271429Y-126907143D01*
X134342857Y-126835714D01*
X134414286Y-126692857D01*
X134414286Y-125478571D01*
X135914286Y-126978571D02*
X135057143Y-126978571D01*
X135485715Y-126978571D02*
X135485715Y-125478571D01*
X135342858Y-125692857D01*
X135200000Y-125835714D01*
X135057143Y-125907143D01*
X134007143Y-120778571D02*
X133150000Y-120778571D01*
X133578572Y-120778571D02*
X133578572Y-119278571D01*
X133435715Y-119492857D01*
X133292857Y-119635714D01*
X133150000Y-119707143D01*
X134935714Y-119278571D02*
X135078571Y-119278571D01*
X135221428Y-119350000D01*
X135292857Y-119421429D01*
X135364286Y-119564286D01*
X135435714Y-119850000D01*
X135435714Y-120207143D01*
X135364286Y-120492857D01*
X135292857Y-120635714D01*
X135221428Y-120707143D01*
X135078571Y-120778571D01*
X134935714Y-120778571D01*
X134792857Y-120707143D01*
X134721428Y-120635714D01*
X134650000Y-120492857D01*
X134578571Y-120207143D01*
X134578571Y-119850000D01*
X134650000Y-119564286D01*
X134721428Y-119421429D01*
X134792857Y-119350000D01*
X134935714Y-119278571D01*
X136078571Y-120778571D02*
X136078571Y-119278571D01*
X136221428Y-120207143D02*
X136649999Y-120778571D01*
X136649999Y-119778571D02*
X136078571Y-120350000D01*
X134007143Y-100678571D02*
X133150000Y-100678571D01*
X133578572Y-100678571D02*
X133578572Y-99178571D01*
X133435715Y-99392857D01*
X133292857Y-99535714D01*
X133150000Y-99607143D01*
X134935714Y-99178571D02*
X135078571Y-99178571D01*
X135221428Y-99250000D01*
X135292857Y-99321429D01*
X135364286Y-99464286D01*
X135435714Y-99750000D01*
X135435714Y-100107143D01*
X135364286Y-100392857D01*
X135292857Y-100535714D01*
X135221428Y-100607143D01*
X135078571Y-100678571D01*
X134935714Y-100678571D01*
X134792857Y-100607143D01*
X134721428Y-100535714D01*
X134650000Y-100392857D01*
X134578571Y-100107143D01*
X134578571Y-99750000D01*
X134650000Y-99464286D01*
X134721428Y-99321429D01*
X134792857Y-99250000D01*
X134935714Y-99178571D01*
X136078571Y-100678571D02*
X136078571Y-99178571D01*
X136221428Y-100107143D02*
X136649999Y-100678571D01*
X136649999Y-99678571D02*
X136078571Y-100250000D01*
X122150001Y-100035714D02*
X122078572Y-100107143D01*
X121864286Y-100178571D01*
X121721429Y-100178571D01*
X121507144Y-100107143D01*
X121364286Y-99964286D01*
X121292858Y-99821429D01*
X121221429Y-99535714D01*
X121221429Y-99321429D01*
X121292858Y-99035714D01*
X121364286Y-98892857D01*
X121507144Y-98750000D01*
X121721429Y-98678571D01*
X121864286Y-98678571D01*
X122078572Y-98750000D01*
X122150001Y-98821429D01*
X122721429Y-98821429D02*
X122792858Y-98750000D01*
X122935715Y-98678571D01*
X123292858Y-98678571D01*
X123435715Y-98750000D01*
X123507144Y-98821429D01*
X123578572Y-98964286D01*
X123578572Y-99107143D01*
X123507144Y-99321429D01*
X122650001Y-100178571D01*
X123578572Y-100178571D01*
X122050001Y-110535714D02*
X121978572Y-110607143D01*
X121764286Y-110678571D01*
X121621429Y-110678571D01*
X121407144Y-110607143D01*
X121264286Y-110464286D01*
X121192858Y-110321429D01*
X121121429Y-110035714D01*
X121121429Y-109821429D01*
X121192858Y-109535714D01*
X121264286Y-109392857D01*
X121407144Y-109250000D01*
X121621429Y-109178571D01*
X121764286Y-109178571D01*
X121978572Y-109250000D01*
X122050001Y-109321429D01*
X123478572Y-110678571D02*
X122621429Y-110678571D01*
X123050001Y-110678571D02*
X123050001Y-109178571D01*
X122907144Y-109392857D01*
X122764286Y-109535714D01*
X122621429Y-109607143D01*
X122450001Y-131335714D02*
X122378572Y-131407143D01*
X122164286Y-131478571D01*
X122021429Y-131478571D01*
X121807144Y-131407143D01*
X121664286Y-131264286D01*
X121592858Y-131121429D01*
X121521429Y-130835714D01*
X121521429Y-130621429D01*
X121592858Y-130335714D01*
X121664286Y-130192857D01*
X121807144Y-130050000D01*
X122021429Y-129978571D01*
X122164286Y-129978571D01*
X122378572Y-130050000D01*
X122450001Y-130121429D01*
X123735715Y-130478571D02*
X123735715Y-131478571D01*
X123378572Y-129907143D02*
X123021429Y-130978571D01*
X123950001Y-130978571D01*
X122550001Y-120635714D02*
X122478572Y-120707143D01*
X122264286Y-120778571D01*
X122121429Y-120778571D01*
X121907144Y-120707143D01*
X121764286Y-120564286D01*
X121692858Y-120421429D01*
X121621429Y-120135714D01*
X121621429Y-119921429D01*
X121692858Y-119635714D01*
X121764286Y-119492857D01*
X121907144Y-119350000D01*
X122121429Y-119278571D01*
X122264286Y-119278571D01*
X122478572Y-119350000D01*
X122550001Y-119421429D01*
X123050001Y-119278571D02*
X123978572Y-119278571D01*
X123478572Y-119850000D01*
X123692858Y-119850000D01*
X123835715Y-119921429D01*
X123907144Y-119992857D01*
X123978572Y-120135714D01*
X123978572Y-120492857D01*
X123907144Y-120635714D01*
X123835715Y-120707143D01*
X123692858Y-120778571D01*
X123264286Y-120778571D01*
X123121429Y-120707143D01*
X123050001Y-120635714D01*
D12*
X119890000Y-106140000D02*
X124610000Y-106140000D01*
X119890000Y-110060000D02*
X124610000Y-110060000D01*
X119890000Y-106140000D02*
X119890000Y-110060000D01*
X124610000Y-106140000D02*
X124610000Y-110060000D01*
X125225722Y-122264277D02*
G75*
G03X120614420Y-122264000I-2305722J-1179723D01*
G01*
X125225722Y-124623723D02*
G75*
G02X120614420Y-124624000I-2305722J1179723D01*
G01*
X125225722Y-124623723D02*
G75*
G03X125225580Y-122264000I-2305722J1179723D01*
G01*
X122920000Y-120894000D02*
X122920000Y-125994000D01*
X122960000Y-120894000D02*
X122960000Y-122464000D01*
X122960000Y-124424000D02*
X122960000Y-125994000D01*
X123000000Y-120895000D02*
X123000000Y-122464000D01*
X123000000Y-124424000D02*
X123000000Y-125993000D01*
X123040000Y-120896000D02*
X123040000Y-122464000D01*
X123040000Y-124424000D02*
X123040000Y-125992000D01*
X123080000Y-120898000D02*
X123080000Y-122464000D01*
X123080000Y-124424000D02*
X123080000Y-125990000D01*
X123120000Y-120901000D02*
X123120000Y-122464000D01*
X123120000Y-124424000D02*
X123120000Y-125987000D01*
X123160000Y-120905000D02*
X123160000Y-122464000D01*
X123160000Y-124424000D02*
X123160000Y-125983000D01*
X123200000Y-120909000D02*
X123200000Y-122464000D01*
X123200000Y-124424000D02*
X123200000Y-125979000D01*
X123240000Y-120913000D02*
X123240000Y-122464000D01*
X123240000Y-124424000D02*
X123240000Y-125975000D01*
X123280000Y-120919000D02*
X123280000Y-122464000D01*
X123280000Y-124424000D02*
X123280000Y-125969000D01*
X123320000Y-120925000D02*
X123320000Y-122464000D01*
X123320000Y-124424000D02*
X123320000Y-125963000D01*
X123360000Y-120931000D02*
X123360000Y-122464000D01*
X123360000Y-124424000D02*
X123360000Y-125957000D01*
X123400000Y-120938000D02*
X123400000Y-122464000D01*
X123400000Y-124424000D02*
X123400000Y-125950000D01*
X123440000Y-120946000D02*
X123440000Y-122464000D01*
X123440000Y-124424000D02*
X123440000Y-125942000D01*
X123480000Y-120955000D02*
X123480000Y-122464000D01*
X123480000Y-124424000D02*
X123480000Y-125933000D01*
X123520000Y-120964000D02*
X123520000Y-122464000D01*
X123520000Y-124424000D02*
X123520000Y-125924000D01*
X123560000Y-120974000D02*
X123560000Y-122464000D01*
X123560000Y-124424000D02*
X123560000Y-125914000D01*
X123600000Y-120984000D02*
X123600000Y-122464000D01*
X123600000Y-124424000D02*
X123600000Y-125904000D01*
X123641000Y-120996000D02*
X123641000Y-122464000D01*
X123641000Y-124424000D02*
X123641000Y-125892000D01*
X123681000Y-121008000D02*
X123681000Y-122464000D01*
X123681000Y-124424000D02*
X123681000Y-125880000D01*
X123721000Y-121020000D02*
X123721000Y-122464000D01*
X123721000Y-124424000D02*
X123721000Y-125868000D01*
X123761000Y-121034000D02*
X123761000Y-122464000D01*
X123761000Y-124424000D02*
X123761000Y-125854000D01*
X123801000Y-121048000D02*
X123801000Y-122464000D01*
X123801000Y-124424000D02*
X123801000Y-125840000D01*
X123841000Y-121062000D02*
X123841000Y-122464000D01*
X123841000Y-124424000D02*
X123841000Y-125826000D01*
X123881000Y-121078000D02*
X123881000Y-122464000D01*
X123881000Y-124424000D02*
X123881000Y-125810000D01*
X123921000Y-121094000D02*
X123921000Y-122464000D01*
X123921000Y-124424000D02*
X123921000Y-125794000D01*
X123961000Y-121111000D02*
X123961000Y-122464000D01*
X123961000Y-124424000D02*
X123961000Y-125777000D01*
X124001000Y-121129000D02*
X124001000Y-122464000D01*
X124001000Y-124424000D02*
X124001000Y-125759000D01*
X124041000Y-121148000D02*
X124041000Y-122464000D01*
X124041000Y-124424000D02*
X124041000Y-125740000D01*
X124081000Y-121168000D02*
X124081000Y-122464000D01*
X124081000Y-124424000D02*
X124081000Y-125720000D01*
X124121000Y-121188000D02*
X124121000Y-122464000D01*
X124121000Y-124424000D02*
X124121000Y-125700000D01*
X124161000Y-121210000D02*
X124161000Y-122464000D01*
X124161000Y-124424000D02*
X124161000Y-125678000D01*
X124201000Y-121232000D02*
X124201000Y-122464000D01*
X124201000Y-124424000D02*
X124201000Y-125656000D01*
X124241000Y-121255000D02*
X124241000Y-122464000D01*
X124241000Y-124424000D02*
X124241000Y-125633000D01*
X124281000Y-121279000D02*
X124281000Y-122464000D01*
X124281000Y-124424000D02*
X124281000Y-125609000D01*
X124321000Y-121304000D02*
X124321000Y-122464000D01*
X124321000Y-124424000D02*
X124321000Y-125584000D01*
X124361000Y-121331000D02*
X124361000Y-122464000D01*
X124361000Y-124424000D02*
X124361000Y-125557000D01*
X124401000Y-121358000D02*
X124401000Y-122464000D01*
X124401000Y-124424000D02*
X124401000Y-125530000D01*
X124441000Y-121386000D02*
X124441000Y-122464000D01*
X124441000Y-124424000D02*
X124441000Y-125502000D01*
X124481000Y-121416000D02*
X124481000Y-122464000D01*
X124481000Y-124424000D02*
X124481000Y-125472000D01*
X124521000Y-121447000D02*
X124521000Y-122464000D01*
X124521000Y-124424000D02*
X124521000Y-125441000D01*
X124561000Y-121479000D02*
X124561000Y-122464000D01*
X124561000Y-124424000D02*
X124561000Y-125409000D01*
X124601000Y-121512000D02*
X124601000Y-122464000D01*
X124601000Y-124424000D02*
X124601000Y-125376000D01*
X124641000Y-121547000D02*
X124641000Y-122464000D01*
X124641000Y-124424000D02*
X124641000Y-125341000D01*
X124681000Y-121583000D02*
X124681000Y-122464000D01*
X124681000Y-124424000D02*
X124681000Y-125305000D01*
X124721000Y-121621000D02*
X124721000Y-122464000D01*
X124721000Y-124424000D02*
X124721000Y-125267000D01*
X124761000Y-121661000D02*
X124761000Y-122464000D01*
X124761000Y-124424000D02*
X124761000Y-125227000D01*
X124801000Y-121702000D02*
X124801000Y-122464000D01*
X124801000Y-124424000D02*
X124801000Y-125186000D01*
X124841000Y-121745000D02*
X124841000Y-122464000D01*
X124841000Y-124424000D02*
X124841000Y-125143000D01*
X124881000Y-121790000D02*
X124881000Y-122464000D01*
X124881000Y-124424000D02*
X124881000Y-125098000D01*
X124921000Y-121838000D02*
X124921000Y-125050000D01*
X124961000Y-121888000D02*
X124961000Y-125000000D01*
X125001000Y-121940000D02*
X125001000Y-124948000D01*
X125041000Y-121996000D02*
X125041000Y-124892000D01*
X125081000Y-122054000D02*
X125081000Y-124834000D01*
X125121000Y-122117000D02*
X125121000Y-124771000D01*
X125161000Y-122183000D02*
X125161000Y-124705000D01*
X125201000Y-122255000D02*
X125201000Y-124633000D01*
X125241000Y-122332000D02*
X125241000Y-124556000D01*
X125281000Y-122416000D02*
X125281000Y-124472000D01*
X125321000Y-122510000D02*
X125321000Y-124378000D01*
X125361000Y-122615000D02*
X125361000Y-124273000D01*
X125401000Y-122737000D02*
X125401000Y-124151000D01*
X125441000Y-122885000D02*
X125441000Y-124003000D01*
X125481000Y-123090000D02*
X125481000Y-123798000D01*
X119720000Y-123444000D02*
X120920000Y-123444000D01*
X120320000Y-122794000D02*
X120320000Y-124094000D01*
D10*
X137495000Y-130535000D02*
X137495000Y-130310000D01*
X131745000Y-130535000D02*
X131745000Y-130235000D01*
X131745000Y-121885000D02*
X131745000Y-122185000D01*
X137495000Y-121885000D02*
X137495000Y-122185000D01*
X137495000Y-130535000D02*
X131745000Y-130535000D01*
X137495000Y-121885000D02*
X131745000Y-121885000D01*
X137495000Y-130310000D02*
X139095000Y-130310000D01*
X137475000Y-110325000D02*
X137475000Y-110100000D01*
X131725000Y-110325000D02*
X131725000Y-110025000D01*
X131725000Y-101675000D02*
X131725000Y-101975000D01*
X137475000Y-101675000D02*
X137475000Y-101975000D01*
X137475000Y-110325000D02*
X131725000Y-110325000D01*
X137475000Y-101675000D02*
X131725000Y-101675000D01*
X137475000Y-110100000D02*
X139075000Y-110100000D01*
D12*
X124805722Y-101820277D02*
G75*
G03X120194420Y-101820000I-2305722J-1179723D01*
G01*
X124805722Y-104179723D02*
G75*
G02X120194420Y-104180000I-2305722J1179723D01*
G01*
X124805722Y-104179723D02*
G75*
G03X124805580Y-101820000I-2305722J1179723D01*
G01*
X122500000Y-100450000D02*
X122500000Y-105550000D01*
X122540000Y-100450000D02*
X122540000Y-102020000D01*
X122540000Y-103980000D02*
X122540000Y-105550000D01*
X122580000Y-100451000D02*
X122580000Y-102020000D01*
X122580000Y-103980000D02*
X122580000Y-105549000D01*
X122620000Y-100452000D02*
X122620000Y-102020000D01*
X122620000Y-103980000D02*
X122620000Y-105548000D01*
X122660000Y-100454000D02*
X122660000Y-102020000D01*
X122660000Y-103980000D02*
X122660000Y-105546000D01*
X122700000Y-100457000D02*
X122700000Y-102020000D01*
X122700000Y-103980000D02*
X122700000Y-105543000D01*
X122740000Y-100461000D02*
X122740000Y-102020000D01*
X122740000Y-103980000D02*
X122740000Y-105539000D01*
X122780000Y-100465000D02*
X122780000Y-102020000D01*
X122780000Y-103980000D02*
X122780000Y-105535000D01*
X122820000Y-100469000D02*
X122820000Y-102020000D01*
X122820000Y-103980000D02*
X122820000Y-105531000D01*
X122860000Y-100475000D02*
X122860000Y-102020000D01*
X122860000Y-103980000D02*
X122860000Y-105525000D01*
X122900000Y-100481000D02*
X122900000Y-102020000D01*
X122900000Y-103980000D02*
X122900000Y-105519000D01*
X122940000Y-100487000D02*
X122940000Y-102020000D01*
X122940000Y-103980000D02*
X122940000Y-105513000D01*
X122980000Y-100494000D02*
X122980000Y-102020000D01*
X122980000Y-103980000D02*
X122980000Y-105506000D01*
X123020000Y-100502000D02*
X123020000Y-102020000D01*
X123020000Y-103980000D02*
X123020000Y-105498000D01*
X123060000Y-100511000D02*
X123060000Y-102020000D01*
X123060000Y-103980000D02*
X123060000Y-105489000D01*
X123100000Y-100520000D02*
X123100000Y-102020000D01*
X123100000Y-103980000D02*
X123100000Y-105480000D01*
X123140000Y-100530000D02*
X123140000Y-102020000D01*
X123140000Y-103980000D02*
X123140000Y-105470000D01*
X123180000Y-100540000D02*
X123180000Y-102020000D01*
X123180000Y-103980000D02*
X123180000Y-105460000D01*
X123221000Y-100552000D02*
X123221000Y-102020000D01*
X123221000Y-103980000D02*
X123221000Y-105448000D01*
X123261000Y-100564000D02*
X123261000Y-102020000D01*
X123261000Y-103980000D02*
X123261000Y-105436000D01*
X123301000Y-100576000D02*
X123301000Y-102020000D01*
X123301000Y-103980000D02*
X123301000Y-105424000D01*
X123341000Y-100590000D02*
X123341000Y-102020000D01*
X123341000Y-103980000D02*
X123341000Y-105410000D01*
X123381000Y-100604000D02*
X123381000Y-102020000D01*
X123381000Y-103980000D02*
X123381000Y-105396000D01*
X123421000Y-100618000D02*
X123421000Y-102020000D01*
X123421000Y-103980000D02*
X123421000Y-105382000D01*
X123461000Y-100634000D02*
X123461000Y-102020000D01*
X123461000Y-103980000D02*
X123461000Y-105366000D01*
X123501000Y-100650000D02*
X123501000Y-102020000D01*
X123501000Y-103980000D02*
X123501000Y-105350000D01*
X123541000Y-100667000D02*
X123541000Y-102020000D01*
X123541000Y-103980000D02*
X123541000Y-105333000D01*
X123581000Y-100685000D02*
X123581000Y-102020000D01*
X123581000Y-103980000D02*
X123581000Y-105315000D01*
X123621000Y-100704000D02*
X123621000Y-102020000D01*
X123621000Y-103980000D02*
X123621000Y-105296000D01*
X123661000Y-100724000D02*
X123661000Y-102020000D01*
X123661000Y-103980000D02*
X123661000Y-105276000D01*
X123701000Y-100744000D02*
X123701000Y-102020000D01*
X123701000Y-103980000D02*
X123701000Y-105256000D01*
X123741000Y-100766000D02*
X123741000Y-102020000D01*
X123741000Y-103980000D02*
X123741000Y-105234000D01*
X123781000Y-100788000D02*
X123781000Y-102020000D01*
X123781000Y-103980000D02*
X123781000Y-105212000D01*
X123821000Y-100811000D02*
X123821000Y-102020000D01*
X123821000Y-103980000D02*
X123821000Y-105189000D01*
X123861000Y-100835000D02*
X123861000Y-102020000D01*
X123861000Y-103980000D02*
X123861000Y-105165000D01*
X123901000Y-100860000D02*
X123901000Y-102020000D01*
X123901000Y-103980000D02*
X123901000Y-105140000D01*
X123941000Y-100887000D02*
X123941000Y-102020000D01*
X123941000Y-103980000D02*
X123941000Y-105113000D01*
X123981000Y-100914000D02*
X123981000Y-102020000D01*
X123981000Y-103980000D02*
X123981000Y-105086000D01*
X124021000Y-100942000D02*
X124021000Y-102020000D01*
X124021000Y-103980000D02*
X124021000Y-105058000D01*
X124061000Y-100972000D02*
X124061000Y-102020000D01*
X124061000Y-103980000D02*
X124061000Y-105028000D01*
X124101000Y-101003000D02*
X124101000Y-102020000D01*
X124101000Y-103980000D02*
X124101000Y-104997000D01*
X124141000Y-101035000D02*
X124141000Y-102020000D01*
X124141000Y-103980000D02*
X124141000Y-104965000D01*
X124181000Y-101068000D02*
X124181000Y-102020000D01*
X124181000Y-103980000D02*
X124181000Y-104932000D01*
X124221000Y-101103000D02*
X124221000Y-102020000D01*
X124221000Y-103980000D02*
X124221000Y-104897000D01*
X124261000Y-101139000D02*
X124261000Y-102020000D01*
X124261000Y-103980000D02*
X124261000Y-104861000D01*
X124301000Y-101177000D02*
X124301000Y-102020000D01*
X124301000Y-103980000D02*
X124301000Y-104823000D01*
X124341000Y-101217000D02*
X124341000Y-102020000D01*
X124341000Y-103980000D02*
X124341000Y-104783000D01*
X124381000Y-101258000D02*
X124381000Y-102020000D01*
X124381000Y-103980000D02*
X124381000Y-104742000D01*
X124421000Y-101301000D02*
X124421000Y-102020000D01*
X124421000Y-103980000D02*
X124421000Y-104699000D01*
X124461000Y-101346000D02*
X124461000Y-102020000D01*
X124461000Y-103980000D02*
X124461000Y-104654000D01*
X124501000Y-101394000D02*
X124501000Y-104606000D01*
X124541000Y-101444000D02*
X124541000Y-104556000D01*
X124581000Y-101496000D02*
X124581000Y-104504000D01*
X124621000Y-101552000D02*
X124621000Y-104448000D01*
X124661000Y-101610000D02*
X124661000Y-104390000D01*
X124701000Y-101673000D02*
X124701000Y-104327000D01*
X124741000Y-101739000D02*
X124741000Y-104261000D01*
X124781000Y-101811000D02*
X124781000Y-104189000D01*
X124821000Y-101888000D02*
X124821000Y-104112000D01*
X124861000Y-101972000D02*
X124861000Y-104028000D01*
X124901000Y-102066000D02*
X124901000Y-103934000D01*
X124941000Y-102171000D02*
X124941000Y-103829000D01*
X124981000Y-102293000D02*
X124981000Y-103707000D01*
X125021000Y-102441000D02*
X125021000Y-103559000D01*
X125061000Y-102646000D02*
X125061000Y-103354000D01*
X119300000Y-103000000D02*
X120500000Y-103000000D01*
X119900000Y-102350000D02*
X119900000Y-103650000D01*
X120390000Y-126640000D02*
X125110000Y-126640000D01*
X120390000Y-130560000D02*
X125110000Y-130560000D01*
X120390000Y-126640000D02*
X120390000Y-130560000D01*
X125110000Y-126640000D02*
X125110000Y-130560000D01*
X141410000Y-102370000D02*
X141410000Y-110050000D01*
X141410000Y-110050000D02*
X144070000Y-110050000D01*
X144070000Y-110050000D02*
X144070000Y-102370000D01*
X144070000Y-102370000D02*
X141410000Y-102370000D01*
X141410000Y-101100000D02*
X141410000Y-99770000D01*
X141410000Y-99770000D02*
X142740000Y-99770000D01*
X141410000Y-87130000D02*
X141410000Y-99890000D01*
X141410000Y-99890000D02*
X144070000Y-99890000D01*
X144070000Y-99890000D02*
X144070000Y-87130000D01*
X144070000Y-87130000D02*
X141410000Y-87130000D01*
X141410000Y-85860000D02*
X141410000Y-84530000D01*
X141410000Y-84530000D02*
X142740000Y-84530000D01*
X151130000Y-92396000D02*
X145990000Y-92396000D01*
X145990000Y-92396000D02*
X145990000Y-95056000D01*
X145990000Y-95056000D02*
X151130000Y-95056000D01*
X151130000Y-95056000D02*
X151130000Y-92396000D01*
X152400000Y-92396000D02*
X153730000Y-92396000D01*
X153730000Y-92396000D02*
X153730000Y-93726000D01*
X151130000Y-107636000D02*
X145990000Y-107636000D01*
X145990000Y-107636000D02*
X145990000Y-110296000D01*
X145990000Y-110296000D02*
X151130000Y-110296000D01*
X151130000Y-110296000D02*
X151130000Y-107636000D01*
X152400000Y-107636000D02*
X153730000Y-107636000D01*
X153730000Y-107636000D02*
X153730000Y-108966000D01*
X151130000Y-105096000D02*
X145990000Y-105096000D01*
X145990000Y-105096000D02*
X145990000Y-107756000D01*
X145990000Y-107756000D02*
X151130000Y-107756000D01*
X151130000Y-107756000D02*
X151130000Y-105096000D01*
X152400000Y-105096000D02*
X153730000Y-105096000D01*
X153730000Y-105096000D02*
X153730000Y-106426000D01*
X151130000Y-94936000D02*
X145990000Y-94936000D01*
X145990000Y-94936000D02*
X145990000Y-97596000D01*
X145990000Y-97596000D02*
X151130000Y-97596000D01*
X151130000Y-97596000D02*
X151130000Y-94936000D01*
X152400000Y-94936000D02*
X153730000Y-94936000D01*
X153730000Y-94936000D02*
X153730000Y-96266000D01*
X151130000Y-102556000D02*
X145990000Y-102556000D01*
X145990000Y-102556000D02*
X145990000Y-105216000D01*
X145990000Y-105216000D02*
X151130000Y-105216000D01*
X151130000Y-105216000D02*
X151130000Y-102556000D01*
X152400000Y-102556000D02*
X153730000Y-102556000D01*
X153730000Y-102556000D02*
X153730000Y-103886000D01*
X151130000Y-100016000D02*
X145990000Y-100016000D01*
X145990000Y-100016000D02*
X145990000Y-102676000D01*
X145990000Y-102676000D02*
X151130000Y-102676000D01*
X151130000Y-102676000D02*
X151130000Y-100016000D01*
X152400000Y-100016000D02*
X153730000Y-100016000D01*
X153730000Y-100016000D02*
X153730000Y-101346000D01*
X151130000Y-97476000D02*
X145990000Y-97476000D01*
X145990000Y-97476000D02*
X145990000Y-100136000D01*
X145990000Y-100136000D02*
X151130000Y-100136000D01*
X151130000Y-100136000D02*
X151130000Y-97476000D01*
X152400000Y-97476000D02*
X153730000Y-97476000D01*
X153730000Y-97476000D02*
X153730000Y-98806000D01*
X144180000Y-120650000D02*
X144180000Y-128330000D01*
X144180000Y-128330000D02*
X146840000Y-128330000D01*
X146840000Y-128330000D02*
X146840000Y-120650000D01*
X146840000Y-120650000D02*
X144180000Y-120650000D01*
X144180000Y-119380000D02*
X144180000Y-118050000D01*
X144180000Y-118050000D02*
X145510000Y-118050000D01*
X146720000Y-120650000D02*
X146720000Y-128330000D01*
X146720000Y-128330000D02*
X149380000Y-128330000D01*
X149380000Y-128330000D02*
X149380000Y-120650000D01*
X149380000Y-120650000D02*
X146720000Y-120650000D01*
X146720000Y-119380000D02*
X146720000Y-118050000D01*
X146720000Y-118050000D02*
X148050000Y-118050000D01*
X153750000Y-81250000D02*
X153750000Y-77150000D01*
X153750000Y-77150000D02*
X145950000Y-77150000D01*
X145950000Y-77150000D02*
X145950000Y-81250000D01*
X145950000Y-81250000D02*
X153750000Y-81250000D01*
X153750000Y-79500000D02*
X153250000Y-79500000D01*
X153250000Y-79500000D02*
X153250000Y-80750000D01*
X153250000Y-80750000D02*
X146450000Y-80750000D01*
X146450000Y-80750000D02*
X146450000Y-79500000D01*
X146450000Y-79500000D02*
X145950000Y-79500000D01*
X153750000Y-78650000D02*
X152750000Y-78650000D01*
X152750000Y-78650000D02*
X152750000Y-77150000D01*
X145950000Y-78650000D02*
X146950000Y-78650000D01*
X146950000Y-78650000D02*
X146950000Y-77150000D01*
X154050000Y-79350000D02*
X154050000Y-76850000D01*
X154050000Y-76850000D02*
X151550000Y-76850000D01*
X131600000Y-119020000D02*
X131600000Y-118690000D01*
X131600000Y-118690000D02*
X138020000Y-118690000D01*
X138020000Y-118690000D02*
X138020000Y-119020000D01*
X131600000Y-120980000D02*
X131600000Y-121310000D01*
X131600000Y-121310000D02*
X138020000Y-121310000D01*
X138020000Y-121310000D02*
X138020000Y-120980000D01*
X131600000Y-99020000D02*
X131600000Y-98690000D01*
X131600000Y-98690000D02*
X138020000Y-98690000D01*
X138020000Y-98690000D02*
X138020000Y-99020000D01*
X131600000Y-100980000D02*
X131600000Y-101310000D01*
X131600000Y-101310000D02*
X138020000Y-101310000D01*
X138020000Y-101310000D02*
X138020000Y-100980000D01*
D10*
X122083334Y-105247143D02*
X122035715Y-105294762D01*
X121892858Y-105342381D01*
X121797620Y-105342381D01*
X121654762Y-105294762D01*
X121559524Y-105199524D01*
X121511905Y-105104286D01*
X121464286Y-104913810D01*
X121464286Y-104770952D01*
X121511905Y-104580476D01*
X121559524Y-104485238D01*
X121654762Y-104390000D01*
X121797620Y-104342381D01*
X121892858Y-104342381D01*
X122035715Y-104390000D01*
X122083334Y-104437619D01*
X123035715Y-105342381D02*
X122464286Y-105342381D01*
X122750000Y-105342381D02*
X122750000Y-104342381D01*
X122654762Y-104485238D01*
X122559524Y-104580476D01*
X122464286Y-104628095D01*
X122753334Y-119991143D02*
X122705715Y-120038762D01*
X122562858Y-120086381D01*
X122467620Y-120086381D01*
X122324762Y-120038762D01*
X122229524Y-119943524D01*
X122181905Y-119848286D01*
X122134286Y-119657810D01*
X122134286Y-119514952D01*
X122181905Y-119324476D01*
X122229524Y-119229238D01*
X122324762Y-119134000D01*
X122467620Y-119086381D01*
X122562858Y-119086381D01*
X122705715Y-119134000D01*
X122753334Y-119181619D01*
X123086667Y-119086381D02*
X123705715Y-119086381D01*
X123372381Y-119467333D01*
X123515239Y-119467333D01*
X123610477Y-119514952D01*
X123658096Y-119562571D01*
X123705715Y-119657810D01*
X123705715Y-119895905D01*
X123658096Y-119991143D01*
X123610477Y-120038762D01*
X123515239Y-120086381D01*
X123229524Y-120086381D01*
X123134286Y-120038762D01*
X123086667Y-119991143D01*
X133858095Y-130912381D02*
X133858095Y-131721905D01*
X133905714Y-131817143D01*
X133953333Y-131864762D01*
X134048571Y-131912381D01*
X134239048Y-131912381D01*
X134334286Y-131864762D01*
X134381905Y-131817143D01*
X134429524Y-131721905D01*
X134429524Y-130912381D01*
X135429524Y-131912381D02*
X134858095Y-131912381D01*
X135143809Y-131912381D02*
X135143809Y-130912381D01*
X135048571Y-131055238D01*
X134953333Y-131150476D01*
X134858095Y-131198095D01*
X133838095Y-110702381D02*
X133838095Y-111511905D01*
X133885714Y-111607143D01*
X133933333Y-111654762D01*
X134028571Y-111702381D01*
X134219048Y-111702381D01*
X134314286Y-111654762D01*
X134361905Y-111607143D01*
X134409524Y-111511905D01*
X134409524Y-110702381D01*
X134838095Y-110797619D02*
X134885714Y-110750000D01*
X134980952Y-110702381D01*
X135219048Y-110702381D01*
X135314286Y-110750000D01*
X135361905Y-110797619D01*
X135409524Y-110892857D01*
X135409524Y-110988095D01*
X135361905Y-111130952D01*
X134790476Y-111702381D01*
X135409524Y-111702381D01*
X122333334Y-99547143D02*
X122285715Y-99594762D01*
X122142858Y-99642381D01*
X122047620Y-99642381D01*
X121904762Y-99594762D01*
X121809524Y-99499524D01*
X121761905Y-99404286D01*
X121714286Y-99213810D01*
X121714286Y-99070952D01*
X121761905Y-98880476D01*
X121809524Y-98785238D01*
X121904762Y-98690000D01*
X122047620Y-98642381D01*
X122142858Y-98642381D01*
X122285715Y-98690000D01*
X122333334Y-98737619D01*
X122714286Y-98737619D02*
X122761905Y-98690000D01*
X122857143Y-98642381D01*
X123095239Y-98642381D01*
X123190477Y-98690000D01*
X123238096Y-98737619D01*
X123285715Y-98832857D01*
X123285715Y-98928095D01*
X123238096Y-99070952D01*
X122666667Y-99642381D01*
X123285715Y-99642381D01*
X122583334Y-125747143D02*
X122535715Y-125794762D01*
X122392858Y-125842381D01*
X122297620Y-125842381D01*
X122154762Y-125794762D01*
X122059524Y-125699524D01*
X122011905Y-125604286D01*
X121964286Y-125413810D01*
X121964286Y-125270952D01*
X122011905Y-125080476D01*
X122059524Y-124985238D01*
X122154762Y-124890000D01*
X122297620Y-124842381D01*
X122392858Y-124842381D01*
X122535715Y-124890000D01*
X122583334Y-124937619D01*
X123440477Y-125175714D02*
X123440477Y-125842381D01*
X123202381Y-124794762D02*
X122964286Y-125509048D01*
X123583334Y-125509048D01*
X142406667Y-98222381D02*
X142406667Y-98936667D01*
X142359047Y-99079524D01*
X142263809Y-99174762D01*
X142120952Y-99222381D01*
X142025714Y-99222381D01*
X142835238Y-98317619D02*
X142882857Y-98270000D01*
X142978095Y-98222381D01*
X143216191Y-98222381D01*
X143311429Y-98270000D01*
X143359048Y-98317619D01*
X143406667Y-98412857D01*
X143406667Y-98508095D01*
X143359048Y-98650952D01*
X142787619Y-99222381D01*
X143406667Y-99222381D01*
X142406667Y-82982381D02*
X142406667Y-83696667D01*
X142359047Y-83839524D01*
X142263809Y-83934762D01*
X142120952Y-83982381D01*
X142025714Y-83982381D01*
X142787619Y-82982381D02*
X143406667Y-82982381D01*
X143073333Y-83363333D01*
X143216191Y-83363333D01*
X143311429Y-83410952D01*
X143359048Y-83458571D01*
X143406667Y-83553810D01*
X143406667Y-83791905D01*
X143359048Y-83887143D01*
X143311429Y-83934762D01*
X143216191Y-83982381D01*
X142930476Y-83982381D01*
X142835238Y-83934762D01*
X142787619Y-83887143D01*
X154182381Y-94059333D02*
X154896667Y-94059333D01*
X155039524Y-94106953D01*
X155134762Y-94202191D01*
X155182381Y-94345048D01*
X155182381Y-94440286D01*
X154515714Y-93154571D02*
X155182381Y-93154571D01*
X154134762Y-93392667D02*
X154849048Y-93630762D01*
X154849048Y-93011714D01*
X154182381Y-109299333D02*
X154896667Y-109299333D01*
X155039524Y-109346953D01*
X155134762Y-109442191D01*
X155182381Y-109585048D01*
X155182381Y-109680286D01*
X154182381Y-108346952D02*
X154182381Y-108823143D01*
X154658571Y-108870762D01*
X154610952Y-108823143D01*
X154563333Y-108727905D01*
X154563333Y-108489809D01*
X154610952Y-108394571D01*
X154658571Y-108346952D01*
X154753810Y-108299333D01*
X154991905Y-108299333D01*
X155087143Y-108346952D01*
X155134762Y-108394571D01*
X155182381Y-108489809D01*
X155182381Y-108727905D01*
X155134762Y-108823143D01*
X155087143Y-108870762D01*
X154182381Y-106759333D02*
X154896667Y-106759333D01*
X155039524Y-106806953D01*
X155134762Y-106902191D01*
X155182381Y-107045048D01*
X155182381Y-107140286D01*
X154182381Y-105854571D02*
X154182381Y-106045048D01*
X154230000Y-106140286D01*
X154277619Y-106187905D01*
X154420476Y-106283143D01*
X154610952Y-106330762D01*
X154991905Y-106330762D01*
X155087143Y-106283143D01*
X155134762Y-106235524D01*
X155182381Y-106140286D01*
X155182381Y-105949809D01*
X155134762Y-105854571D01*
X155087143Y-105806952D01*
X154991905Y-105759333D01*
X154753810Y-105759333D01*
X154658571Y-105806952D01*
X154610952Y-105854571D01*
X154563333Y-105949809D01*
X154563333Y-106140286D01*
X154610952Y-106235524D01*
X154658571Y-106283143D01*
X154753810Y-106330762D01*
X154182381Y-96599333D02*
X154896667Y-96599333D01*
X155039524Y-96646953D01*
X155134762Y-96742191D01*
X155182381Y-96885048D01*
X155182381Y-96980286D01*
X154182381Y-96218381D02*
X154182381Y-95551714D01*
X155182381Y-95980286D01*
X154182381Y-104219333D02*
X154896667Y-104219333D01*
X155039524Y-104266953D01*
X155134762Y-104362191D01*
X155182381Y-104505048D01*
X155182381Y-104600286D01*
X154610952Y-103600286D02*
X154563333Y-103695524D01*
X154515714Y-103743143D01*
X154420476Y-103790762D01*
X154372857Y-103790762D01*
X154277619Y-103743143D01*
X154230000Y-103695524D01*
X154182381Y-103600286D01*
X154182381Y-103409809D01*
X154230000Y-103314571D01*
X154277619Y-103266952D01*
X154372857Y-103219333D01*
X154420476Y-103219333D01*
X154515714Y-103266952D01*
X154563333Y-103314571D01*
X154610952Y-103409809D01*
X154610952Y-103600286D01*
X154658571Y-103695524D01*
X154706190Y-103743143D01*
X154801429Y-103790762D01*
X154991905Y-103790762D01*
X155087143Y-103743143D01*
X155134762Y-103695524D01*
X155182381Y-103600286D01*
X155182381Y-103409809D01*
X155134762Y-103314571D01*
X155087143Y-103266952D01*
X154991905Y-103219333D01*
X154801429Y-103219333D01*
X154706190Y-103266952D01*
X154658571Y-103314571D01*
X154610952Y-103409809D01*
X154182381Y-101679333D02*
X154896667Y-101679333D01*
X155039524Y-101726953D01*
X155134762Y-101822191D01*
X155182381Y-101965048D01*
X155182381Y-102060286D01*
X155182381Y-101155524D02*
X155182381Y-100965048D01*
X155134762Y-100869809D01*
X155087143Y-100822190D01*
X154944286Y-100726952D01*
X154753810Y-100679333D01*
X154372857Y-100679333D01*
X154277619Y-100726952D01*
X154230000Y-100774571D01*
X154182381Y-100869809D01*
X154182381Y-101060286D01*
X154230000Y-101155524D01*
X154277619Y-101203143D01*
X154372857Y-101250762D01*
X154610952Y-101250762D01*
X154706190Y-101203143D01*
X154753810Y-101155524D01*
X154801429Y-101060286D01*
X154801429Y-100869809D01*
X154753810Y-100774571D01*
X154706190Y-100726952D01*
X154610952Y-100679333D01*
X154182381Y-99615523D02*
X154896667Y-99615523D01*
X155039524Y-99663143D01*
X155134762Y-99758381D01*
X155182381Y-99901238D01*
X155182381Y-99996476D01*
X155182381Y-98615523D02*
X155182381Y-99186952D01*
X155182381Y-98901238D02*
X154182381Y-98901238D01*
X154325238Y-98996476D01*
X154420476Y-99091714D01*
X154468095Y-99186952D01*
X154182381Y-97996476D02*
X154182381Y-97901237D01*
X154230000Y-97805999D01*
X154277619Y-97758380D01*
X154372857Y-97710761D01*
X154563333Y-97663142D01*
X154801429Y-97663142D01*
X154991905Y-97710761D01*
X155087143Y-97758380D01*
X155134762Y-97805999D01*
X155182381Y-97901237D01*
X155182381Y-97996476D01*
X155134762Y-98091714D01*
X155087143Y-98139333D01*
X154991905Y-98186952D01*
X154801429Y-98234571D01*
X154563333Y-98234571D01*
X154372857Y-98186952D01*
X154277619Y-98139333D01*
X154230000Y-98091714D01*
X154182381Y-97996476D01*
X144700477Y-116502381D02*
X144700477Y-117216667D01*
X144652857Y-117359524D01*
X144557619Y-117454762D01*
X144414762Y-117502381D01*
X144319524Y-117502381D01*
X145700477Y-117502381D02*
X145129048Y-117502381D01*
X145414762Y-117502381D02*
X145414762Y-116502381D01*
X145319524Y-116645238D01*
X145224286Y-116740476D01*
X145129048Y-116788095D01*
X146652858Y-117502381D02*
X146081429Y-117502381D01*
X146367143Y-117502381D02*
X146367143Y-116502381D01*
X146271905Y-116645238D01*
X146176667Y-116740476D01*
X146081429Y-116788095D01*
X147240477Y-116502381D02*
X147240477Y-117216667D01*
X147192857Y-117359524D01*
X147097619Y-117454762D01*
X146954762Y-117502381D01*
X146859524Y-117502381D01*
X148240477Y-117502381D02*
X147669048Y-117502381D01*
X147954762Y-117502381D02*
X147954762Y-116502381D01*
X147859524Y-116645238D01*
X147764286Y-116740476D01*
X147669048Y-116788095D01*
X148621429Y-116597619D02*
X148669048Y-116550000D01*
X148764286Y-116502381D01*
X149002382Y-116502381D01*
X149097620Y-116550000D01*
X149145239Y-116597619D01*
X149192858Y-116692857D01*
X149192858Y-116788095D01*
X149145239Y-116930952D01*
X148573810Y-117502381D01*
X149192858Y-117502381D01*
X149040477Y-81952381D02*
X149040477Y-82666667D01*
X148992857Y-82809524D01*
X148897619Y-82904762D01*
X148754762Y-82952381D01*
X148659524Y-82952381D01*
X150040477Y-82952381D02*
X149469048Y-82952381D01*
X149754762Y-82952381D02*
X149754762Y-81952381D01*
X149659524Y-82095238D01*
X149564286Y-82190476D01*
X149469048Y-82238095D01*
X150373810Y-81952381D02*
X150992858Y-81952381D01*
X150659524Y-82333333D01*
X150802382Y-82333333D01*
X150897620Y-82380952D01*
X150945239Y-82428571D01*
X150992858Y-82523810D01*
X150992858Y-82761905D01*
X150945239Y-82857143D01*
X150897620Y-82904762D01*
X150802382Y-82952381D01*
X150516667Y-82952381D01*
X150421429Y-82904762D01*
X150373810Y-82857143D01*
X134643334Y-118142381D02*
X134310000Y-117666190D01*
X134071905Y-118142381D02*
X134071905Y-117142381D01*
X134452858Y-117142381D01*
X134548096Y-117190000D01*
X134595715Y-117237619D01*
X134643334Y-117332857D01*
X134643334Y-117475714D01*
X134595715Y-117570952D01*
X134548096Y-117618571D01*
X134452858Y-117666190D01*
X134071905Y-117666190D01*
X135595715Y-118142381D02*
X135024286Y-118142381D01*
X135310000Y-118142381D02*
X135310000Y-117142381D01*
X135214762Y-117285238D01*
X135119524Y-117380476D01*
X135024286Y-117428095D01*
X134643334Y-98142381D02*
X134310000Y-97666190D01*
X134071905Y-98142381D02*
X134071905Y-97142381D01*
X134452858Y-97142381D01*
X134548096Y-97190000D01*
X134595715Y-97237619D01*
X134643334Y-97332857D01*
X134643334Y-97475714D01*
X134595715Y-97570952D01*
X134548096Y-97618571D01*
X134452858Y-97666190D01*
X134071905Y-97666190D01*
X135024286Y-97237619D02*
X135071905Y-97190000D01*
X135167143Y-97142381D01*
X135405239Y-97142381D01*
X135500477Y-97190000D01*
X135548096Y-97237619D01*
X135595715Y-97332857D01*
X135595715Y-97428095D01*
X135548096Y-97570952D01*
X134976667Y-98142381D01*
X135595715Y-98142381D01*
M02*
