G04 #@! TF.FileFunction,Soldermask,Bot*
%FSLAX46Y46*%
G04 Gerber Fmt 4.6, Leading zero omitted, Abs format (unit mm)*
G04 Created by KiCad (PCBNEW 4.0.7) date 08/31/18 00:13:05*
%MOMM*%
%LPD*%
G01*
G04 APERTURE LIST*
%ADD10C,0.150000*%
%ADD11C,1.800000*%
%ADD12R,2.000000X2.000000*%
%ADD13C,2.000000*%
%ADD14R,2.100000X2.100000*%
%ADD15O,2.100000X2.100000*%
%ADD16R,2.250000X2.250000*%
%ADD17C,2.250000*%
%ADD18O,2.000000X2.000000*%
G04 APERTURE END LIST*
D10*
D11*
X121000000Y-108100000D03*
X123500000Y-108100000D03*
D12*
X121920000Y-123444000D03*
D13*
X123920000Y-123444000D03*
D14*
X115570000Y-80490000D03*
D15*
X113030000Y-80490000D03*
X115570000Y-83030000D03*
X113030000Y-83030000D03*
X115570000Y-85570000D03*
X113030000Y-85570000D03*
X115570000Y-88110000D03*
X113030000Y-88110000D03*
X115570000Y-90650000D03*
X113030000Y-90650000D03*
X115570000Y-93190000D03*
X113030000Y-93190000D03*
X115570000Y-95730000D03*
X113030000Y-95730000D03*
X115570000Y-98270000D03*
X113030000Y-98270000D03*
X115570000Y-100810000D03*
X113030000Y-100810000D03*
X115570000Y-103350000D03*
X113030000Y-103350000D03*
X115570000Y-105890000D03*
X113030000Y-105890000D03*
X115570000Y-108430000D03*
X113030000Y-108430000D03*
X115570000Y-110970000D03*
X113030000Y-110970000D03*
X115570000Y-113510000D03*
X113030000Y-113510000D03*
X115570000Y-116050000D03*
X113030000Y-116050000D03*
X115570000Y-118590000D03*
X113030000Y-118590000D03*
X115570000Y-121130000D03*
X113030000Y-121130000D03*
X115570000Y-123670000D03*
X113030000Y-123670000D03*
X115570000Y-126210000D03*
X113030000Y-126210000D03*
X115570000Y-128750000D03*
X113030000Y-128750000D03*
D12*
X121500000Y-103000000D03*
D13*
X123500000Y-103000000D03*
D11*
X121500000Y-128600000D03*
X124000000Y-128600000D03*
D14*
X142740000Y-101100000D03*
D15*
X142740000Y-103640000D03*
X142740000Y-106180000D03*
X142740000Y-108720000D03*
D14*
X142740000Y-85860000D03*
D15*
X142740000Y-88400000D03*
X142740000Y-90940000D03*
X142740000Y-93480000D03*
X142740000Y-96020000D03*
X142740000Y-98560000D03*
D14*
X152400000Y-93726000D03*
D15*
X149860000Y-93726000D03*
X147320000Y-93726000D03*
D14*
X152400000Y-108966000D03*
D15*
X149860000Y-108966000D03*
X147320000Y-108966000D03*
D14*
X152400000Y-106426000D03*
D15*
X149860000Y-106426000D03*
X147320000Y-106426000D03*
D14*
X152400000Y-96266000D03*
D15*
X149860000Y-96266000D03*
X147320000Y-96266000D03*
D14*
X152400000Y-103886000D03*
D15*
X149860000Y-103886000D03*
X147320000Y-103886000D03*
D14*
X152400000Y-101346000D03*
D15*
X149860000Y-101346000D03*
X147320000Y-101346000D03*
D14*
X152400000Y-98806000D03*
D15*
X149860000Y-98806000D03*
X147320000Y-98806000D03*
D14*
X145510000Y-119380000D03*
D15*
X145510000Y-121920000D03*
X145510000Y-124460000D03*
X145510000Y-127000000D03*
D14*
X148050000Y-119380000D03*
D15*
X148050000Y-121920000D03*
X148050000Y-124460000D03*
X148050000Y-127000000D03*
D16*
X151100000Y-79500000D03*
D17*
X148600000Y-79500000D03*
D13*
X131000000Y-120000000D03*
D18*
X138620000Y-120000000D03*
D13*
X131000000Y-100000000D03*
D18*
X138620000Y-100000000D03*
M02*
